<svg xmlns="http://www.w3.org/2000/svg" viewBox="0 0 269 111.7">
    <linearGradient id="apps-a" x1="165.29" x2="165.29" y1="585.51" y2="532.21" gradientTransform="translate(0 -532.21)" gradientUnits="userSpaceOnUse">
        <stop offset="0" stop-color="#4780e8"/>
        <stop offset="1" stop-color="#11c8f6"/>
    </linearGradient>
    <path fill="url(#apps-a)" d="M181.2 0h-31.8c-5.9 0-10.8 4.8-10.8 10.8v31.8c0 5.9 4.8 10.8 10.8 10.8h31.8c5.9 0 10.7-4.8 10.8-10.8V10.8c-.1-6-4.9-10.8-10.8-10.8zm-27.7 42.1c-.7 1.2-2.2 1.6-3.3.9-1.2-.7-1.6-2.2-.9-3.3l1.5-2.7s.4-.7 1.8-.7c1.3 0 2.4.7 3.1 1.8l-2.2 4zm16.7-6.5h-22c-1.3 0-2.4-1.1-2.4-2.4s1.1-2.4 2.4-2.4h6.4l7.8-13.5v-.1l-2.6-4.5c-.6-1.2-.1-2.7 1.1-3.3 1.1-.6 2.4-.2 3.1.8l1.2 2.1 1.2-2.1c.6-1.2 2.1-1.6 3.3-.9h.1c1.2.7 1.6 2.1.9 3.3l-10.4 18h7.2c1.2.1 2.2.8 2.8 1.9 1 2-.1 3.1-.1 3.1zm11.8 0h-3.6l2.4 4.1c.6 1.2.3 2.6-.9 3.3-1.1.7-2.6.3-3.3-.8l-8.6-15c-.7-1.4-1.1-3-1.1-4.5 0-1.6.6-3.1 1.8-4.1l7 12.2h6.3c1.3 0 2.4 1.1 2.4 2.4s-1.1 2.4-2.4 2.4z"/>
    <linearGradient id="apps-b" x1="-309.0307" x2="-311.6107" y1="-96.7132" y2="-95.3732" gradientTransform="matrix(13.7 0 0 -26.05 4333.1997 -2468.7)" gradientUnits="userSpaceOnUse">
        <stop offset="0" stop-color="#00a0ff"/>
        <stop offset=".01" stop-color="#00a1ff"/>
        <stop offset=".26" stop-color="#00beff"/>
        <stop offset=".51" stop-color="#00d2ff"/>
        <stop offset=".76" stop-color="#00dfff"/>
        <stop offset="1" stop-color="#00e3ff"/>
    </linearGradient>
    <path fill="url(#apps-b)" d="M74.9.8c-.7.8-1.1 1.9-1 2.9v45.8c-.1 1.1.3 2.1 1 2.9l.2.1L101.3 27v-.6L75.1.7l-.2.1z"/>
    <linearGradient id="apps-c" x1="-299.4354" x2="-304.1854" y1="-141.0669" y2="-141.0669" gradientTransform="matrix(10.77 0 0 -8.89 3349.5701 -1227.4397)" gradientUnits="userSpaceOnUse">
        <stop offset="0" stop-color="#ffe000"/>
        <stop offset=".41" stop-color="#ffbd00"/>
        <stop offset=".78" stop-color="orange"/>
        <stop offset="1" stop-color="#ff9c00"/>
    </linearGradient>
    <path fill="url(#apps-c)" d="M110 35.5l-8.7-8.5v-.6l8.7-8.6.2.1 10.3 5.8c3 1.6 3 4.3 0 6l-10.3 5.7-.2.1z"/>
    <linearGradient id="apps-d" x1="-316.9051" x2="-319.6251" y1="-118.0944" y2="-114.5643" gradientTransform="matrix(17.69 0 0 -13.37 5690.9204 -1542.5302)" gradientUnits="userSpaceOnUse">
        <stop offset="0" stop-color="#ff3a44"/>
        <stop offset="1" stop-color="#c31162"/>
    </linearGradient>
    <path fill="url(#apps-d)" d="M110.2 35.4l-8.9-8.8-26.4 25.9c1 1 2.6 1.1 4.4.1l30.9-17.2"/>
    <linearGradient id="apps-e" x1="-319.0836" x2="-317.8736" y1="-120.7169" y2="-119.1368" gradientTransform="matrix(17.69 0 0 -13.36 5691.0903 -1558.0002)" gradientUnits="userSpaceOnUse">
        <stop offset="0" stop-color="#32a071"/>
        <stop offset=".07" stop-color="#2da771"/>
        <stop offset=".48" stop-color="#15cf74"/>
        <stop offset=".8" stop-color="#06e775"/>
        <stop offset="1" stop-color="#00f076"/>
    </linearGradient>
    <path fill="url(#apps-e)" d="M110.2 17.9L79.3.7c-1.8-1-3.4-.9-4.4.1l26.3 25.8 9-8.7z"/>
    <path fill="#344554" d="M2 79.5h1.3c.9 0 1.5-.2 1.9-.5s.6-.8.6-1.4c0-.6-.2-1.1-.6-1.4s-1.2-.4-2-.4H2v3.7zm0 1.6v4.6H.1V74.2h3.2c1.5 0 2.6.3 3.3.8s1.1 1.4 1.1 2.5c0 1.4-.7 2.4-2.2 3l3.2 5.1H6.5L3.8 81H2zm11.9 4.7c-1.3 0-2.4-.4-3.2-1.2s-1.1-1.9-1.1-3.2c0-1.4.4-2.5 1.1-3.3s1.7-1.2 2.9-1.2c1.1 0 2 .3 2.7 1s1 1.6 1 2.9v1h-5.8c0 .8.3 1.5.7 1.9s1 .7 1.8.7c.5 0 1 0 1.4-.1s.9-.3 1.4-.5v1.5c-.4.2-.9.4-1.4.5s-.9 0-1.5 0zm-.3-7.6c-.6 0-1.1.2-1.4.6s-.6.9-.6 1.6h3.9c0-.7-.2-1.3-.5-1.6s-.9-.6-1.4-.6zm13-1.2v1l-1.5.3c.1.2.2.4.3.7s.1.5.1.8c0 .9-.3 1.6-.9 2.1s-1.5.8-2.5.8c-.3 0-.5 0-.8-.1-.4.2-.6.5-.6.9 0 .2.1.3.3.4s.5.1 1 .1h1.5c1 0 1.7.2 2.2.6s.7 1 .7 1.8c0 1-.4 1.7-1.2 2.3s-2 .8-3.5.8c-1.2 0-2.1-.2-2.7-.6s-.9-1-.9-1.8c0-.5.2-1 .5-1.3s.8-.6 1.4-.8c-.2-.1-.4-.3-.6-.5s-.2-.5-.2-.7c0-.3.1-.6.3-.8s.5-.4.8-.7c-.4-.2-.8-.5-1.1-.9s-.4-.9-.4-1.5c0-.9.3-1.7.9-2.2s1.4-.8 2.5-.8c.2 0 .5 0 .8.1s.5.1.6.1h3zm-6.7 10c0 .4.2.7.5.9s.9.3 1.5.3c1 0 1.7-.1 2.2-.4s.7-.7.7-1.1c0-.4-.1-.6-.4-.8s-.8-.2-1.5-.2h-1.4c-.5 0-.9.1-1.3.4s-.3.5-.3.9zm.7-7.2c0 .5.1 1 .4 1.2s.7.4 1.2.4c1.1 0 1.6-.6 1.6-1.7 0-.6-.1-1-.4-1.3s-.6-.4-1.1-.4c-.5 0-.9.2-1.2.5s-.5.7-.5 1.3zm13.7 5.8l-.3-1.1c-.3.4-.6.7-1.1.9s-1 .3-1.6.3c-1 0-1.8-.3-2.3-.8s-.8-1.3-.8-2.4V77H30v5.3c0 .7.1 1.2.4 1.5s.7.5 1.3.5c.8 0 1.3-.2 1.7-.7s.5-1.2.5-2.3V77h1.8v8.6h-1.4zm5.9 0h-1.8V73.5h1.8v12.1zm8.1 0l-.4-1.2h-.1c-.4.5-.8.9-1.3 1.1s-1 .3-1.6.3c-.8 0-1.5-.2-2-.7s-.7-1.1-.7-1.9c0-.9.3-1.6 1-2s1.7-.7 3-.7h1.5V80c0-.6-.1-1-.4-1.2s-.7-.4-1.2-.4c-.4 0-.9.1-1.3.2s-.8.3-1.2.5l-.6-1.3 1.5-.6c.5-.2 1.1-.2 1.6-.2 1.1 0 1.9.2 2.5.7s.8 1.2.8 2.3v5.8h-1.1zm-2.8-1.2c.7 0 1.2-.2 1.6-.6s.6-.9.6-1.6v-.8h-1.1c-.9 0-1.5.2-1.9.4s-.6.7-.6 1.2c0 .4.1.7.3.9s.7.5 1.1.5zm11-7.6c.4 0 .7 0 .9.1l-.2 1.7c-.3-.1-.5-.1-.8-.1-.7 0-1.3.2-1.8.7s-.6 1.2-.6 1.9v4.5h-1.8V77h1.4l.2 1.5h.1c.3-.5.7-.9 1.1-1.2s1-.5 1.5-.5zm1.2.2h2l1.8 4.9c.3.7.4 1.4.5 2h.1c0-.3.1-.6.3-1s.8-2.4 2-5.8h2l-3.7 9.8c-.7 1.8-1.8 2.7-3.4 2.7-.4 0-.8 0-1.2-.1V88h.9c.9 0 1.5-.5 1.9-1.5l.3-.8-3.5-8.7zm16.1 8.6H72V74.2h6.4v1.6h-4.6v3.6h4.3V81h-4.3v4.6zm10.3.2c-1.3 0-2.4-.4-3.2-1.2s-1.1-1.9-1.1-3.2c0-1.4.4-2.5 1.1-3.3s1.7-1.2 2.9-1.2c1.1 0 2 .3 2.7 1s1 1.6 1 2.9v1h-5.8c0 .8.3 1.5.7 1.9s1 .7 1.8.7c.5 0 1 0 1.4-.1s.9-.3 1.4-.5v1.5c-.4.2-.9.4-1.4.5s-.9 0-1.5 0zm-.4-7.6c-.6 0-1.1.2-1.4.6s-.6.9-.6 1.6h3.9c0-.7-.2-1.3-.5-1.6s-.8-.6-1.4-.6zm11.2 7.4l-.4-1.2h-.1c-.4.5-.8.9-1.3 1.1s-1 .3-1.6.3c-.8 0-1.5-.2-2-.7s-.7-1.1-.7-1.9c0-.9.3-1.6 1-2s1.7-.7 3-.7h1.5V80c0-.6-.1-1-.4-1.2s-.7-.4-1.2-.4c-.4 0-.9.1-1.3.2s-.8.3-1.2.5l-.6-1.3 1.5-.6c.5-.2 1.1-.2 1.6-.2 1.1 0 1.9.2 2.5.7s.8 1.2.8 2.3v5.8h-1.1zm-2.7-1.2c.7 0 1.2-.2 1.6-.6s.6-.9.6-1.6v-.8h-1.1c-.9 0-1.5.2-1.9.4s-.6.7-.6 1.2c0 .4.1.7.3.9s.6.5 1.1.5zm9.8-.1c.4 0 .9-.1 1.3-.2v1.4c-.2.1-.5.2-.8.2s-.7.1-1 .1c-1.7 0-2.6-.9-2.6-2.8v-4.7h-1.2v-.8l1.3-.7.6-1.8h1.1v2h2.5v1.4h-2.5V83c0 .4.1.8.3 1s.6.3 1 .3zm9.2 1.3l-.3-1.1h-.1c-.3.4-.6.7-1.1.9s-1 .3-1.6.3c-1 0-1.8-.3-2.3-.8s-.8-1.3-.8-2.4V77h1.9v5.3c0 .7.1 1.2.4 1.5s.7.5 1.3.5c.8 0 1.3-.2 1.7-.7s.5-1.2.5-2.3V77h1.8v8.6h-1.4zm8.4-8.8c.4 0 .7 0 .9.1l-.2 1.7c-.3-.1-.5-.1-.8-.1-.7 0-1.3.2-1.8.7s-.7 1.1-.7 1.9v4.5h-1.8V77h1.4l.2 1.5h.1c.3-.5.7-.9 1.1-1.2s1.1-.5 1.6-.5zm6.3 9c-1.3 0-2.4-.4-3.2-1.2s-1.1-1.9-1.1-3.2c0-1.4.4-2.5 1.1-3.3s1.7-1.2 2.9-1.2c1.1 0 2 .3 2.7 1s1 1.6 1 2.9v1h-5.8c0 .8.3 1.5.7 1.9s1 .7 1.8.7c.5 0 1 0 1.4-.1s.9-.3 1.4-.5v1.5c-.4.2-.9.4-1.4.5s-.9 0-1.5 0zm-.3-7.6c-.6 0-1.1.2-1.4.6s-.6.9-.6 1.6h3.9c0-.7-.2-1.3-.5-1.6s-.8-.6-1.4-.6zm8.7 7.6c-1.1 0-1.9-.4-2.5-1.2s-.9-1.9-.9-3.3.3-2.5.9-3.3 1.5-1.2 2.5-1.2c1.1 0 2 .4 2.6 1.3h.1c-.1-.6-.1-1.1-.1-1.5v-3.1h1.8v12.2h-1.4l-.3-1.1h-.1c-.6.8-1.5 1.2-2.6 1.2zm.5-1.5c.8 0 1.3-.2 1.6-.6s.5-1.1.5-2.1v-.3c0-1.1-.2-1.9-.5-2.3s-.9-.7-1.7-.7c-.6 0-1.1.3-1.5.8s-.5 1.3-.5 2.2c0 1 .2 1.7.5 2.2s.9.8 1.6.8zm16.1 1.3l-.4-1.2h-.1c-.4.5-.8.9-1.3 1.1s-1 .3-1.6.3c-.8 0-1.5-.2-2-.7s-.7-1.1-.7-1.9c0-.9.3-1.6 1-2s1.7-.7 3-.7h1.5V80c0-.6-.1-1-.4-1.2s-.7-.4-1.2-.4c-.4 0-.9.1-1.3.2s-.8.3-1.2.5l-.6-1.3 1.5-.6c.5-.2 1.1-.2 1.6-.2 1.1 0 1.9.2 2.5.7s.8 1.2.8 2.3v5.8h-1.1zm-2.8-1.2c.7 0 1.2-.2 1.6-.6s.6-.9.6-1.6v-.8h-1.1c-.9 0-1.5.2-1.9.4s-.6.7-.6 1.2c0 .4.1.7.3.9s.7.5 1.1.5zm12.5-1.2c0 .8-.3 1.5-.9 1.9s-1.5.7-2.6.7c-1.2 0-2.1-.2-2.8-.5v-1.6c1 .5 2 .7 2.8.7 1.1 0 1.7-.3 1.7-1 0-.2-.1-.4-.2-.5s-.3-.3-.6-.5-.7-.3-1.2-.5c-1-.4-1.7-.8-2-1.2s-.5-.9-.5-1.5c0-.7.3-1.3.9-1.7s1.4-.6 2.4-.6 2 .2 2.9.6l-.6 1.4c-.9-.4-1.7-.6-2.4-.6-1 0-1.5.3-1.5.8 0 .3.1.5.4.7s.8.4 1.7.8c.7.3 1.2.5 1.6.8s.6.5.7.8.2.6.2 1zm13.4 2.4l-1.1-3.2h-4.4l-1.1 3.2h-2l4.3-11.5h2l4.3 11.5h-2zm-1.6-4.7l-1.1-3.1c-.1-.2-.2-.5-.3-1s-.2-.8-.3-1c-.1.6-.3 1.3-.6 2.1l-1 3h3.3zm9.3 4.9c-1.1 0-1.9-.4-2.5-1.2h-.2c.1.7.1 1.2.1 1.3v3.5h-1.8V77h1.5c0 .2.1.5.3 1.2h.1c.6-.9 1.4-1.3 2.6-1.3 1.1 0 1.9.4 2.5 1.2s.9 1.9.9 3.3-.3 2.5-.9 3.3-1.6 1.1-2.6 1.1zm-.5-7.5c-.7 0-1.3.2-1.6.6s-.5 1.1-.5 2v.3c0 1.1.2 1.8.5 2.3s.9.7 1.6.7c.6 0 1.1-.3 1.5-.8s.5-1.3.5-2.2c0-1-.2-1.7-.5-2.2-.3-.4-.8-.7-1.5-.7zm10.4 7.5c-1.1 0-1.9-.4-2.5-1.2h-.1c.1.7.1 1.2.1 1.3v3.5h-1.8V77h1.5c0 .2.1.5.3 1.2h.1c.6-.9 1.4-1.3 2.6-1.3 1.1 0 1.9.4 2.5 1.2s.9 1.9.9 3.3-.3 2.5-.9 3.3-1.6 1.1-2.7 1.1zm-.4-7.5c-.7 0-1.3.2-1.6.6s-.5 1.1-.5 2v.3c0 1.1.2 1.8.5 2.3s.9.7 1.6.7c.6 0 1.1-.3 1.5-.8s.5-1.3.5-2.2c0-1-.2-1.7-.5-2.2-.3-.4-.9-.7-1.5-.7zm12.8 4.2c0 1-.4 1.8-1.1 2.4s-1.7.9-3 .9-2.3-.2-3.2-.6v-1.8c.5.2 1.1.4 1.7.6s1.1.2 1.6.2c.7 0 1.3-.1 1.6-.4s.5-.7.5-1.1c0-.4-.2-.8-.5-1.1s-1-.6-2-1.1c-1-.4-1.8-.9-2.2-1.4s-.6-1.2-.6-2c0-1 .3-1.7 1-2.2s1.6-.8 2.7-.8 2.2.2 3.3.7l-.6 1.5c-1-.4-1.9-.6-2.7-.6-.6 0-1.1.1-1.4.4s-.5.6-.5 1c0 .3.1.6.2.8s.3.4.6.6.8.4 1.5.7c.8.3 1.5.7 1.8 1s.7.6.9 1 .4.8.4 1.3zm5.2 1.8c.4 0 .9-.1 1.3-.2v1.4c-.2.1-.5.2-.8.2s-.7.1-1 .1c-1.7 0-2.6-.9-2.6-2.8v-4.7H205v-.8l1.3-.7.6-1.8h1.1v2h2.5v1.4H208V83c0 .4.1.8.3 1s.6.3.9.3zm10.8-3c0 1.4-.4 2.5-1.1 3.3s-1.7 1.2-3 1.2c-.8 0-1.5-.2-2.1-.5s-1.1-.9-1.4-1.6-.5-1.5-.5-2.4c0-1.4.4-2.5 1.1-3.3s1.7-1.2 3-1.2c1.2 0 2.2.4 3 1.2s1 1.9 1 3.3zm-6.3 0c0 2 .7 3 2.2 3 1.5 0 2.2-1 2.2-3s-.7-3-2.2-3c-.8 0-1.3.3-1.7.8s-.5 1.3-.5 2.2zm12.8-4.5c.4 0 .7 0 .9.1l-.2 1.7c-.3-.1-.5-.1-.8-.1-.7 0-1.3.2-1.8.7s-.7 1.1-.7 1.9v4.5h-1.8V77h1.4l.2 1.5h.1c.3-.5.7-.9 1.1-1.2s1-.5 1.6-.5zm6.3 9c-1.3 0-2.4-.4-3.2-1.2s-1.1-1.9-1.1-3.2c0-1.4.4-2.5 1.1-3.3s1.7-1.2 2.9-1.2c1.1 0 2 .3 2.7 1s1 1.6 1 2.9v1h-5.8c0 .8.3 1.5.7 1.9s1 .7 1.8.7c.5 0 1 0 1.4-.1s.9-.3 1.4-.5v1.5c-.4.2-.9.4-1.4.5s-1 0-1.5 0zm-.4-7.6c-.6 0-1.1.2-1.4.6s-.6.9-.6 1.6h3.9c0-.7-.2-1.3-.5-1.6s-.8-.6-1.4-.6zm15.4 7.4l-.4-1.2h-.1c-.4.5-.8.9-1.3 1.1s-1 .3-1.6.3c-.8 0-1.5-.2-2-.7s-.7-1.1-.7-1.9c0-.9.3-1.6 1-2s1.7-.7 3-.7h1.5V80c0-.6-.1-1-.4-1.2s-.7-.4-1.2-.4c-.4 0-.9.1-1.3.2s-.8.3-1.2.5l-.6-1.3 1.5-.6c.5-.2 1.1-.2 1.6-.2 1.1 0 1.9.2 2.5.7s.8 1.2.8 2.3v5.8h-1.1zm-2.8-1.2c.7 0 1.2-.2 1.6-.6s.6-.9.6-1.6v-.8h-1.1c-.9 0-1.5.2-1.9.4s-.6.7-.6 1.2c0 .4.1.7.3.9s.7.5 1.1.5zm14.2 1.2h-1.8v-5.3c0-.7-.1-1.2-.4-1.5s-.7-.5-1.3-.5c-.8 0-1.3.2-1.7.7s-.5 1.2-.5 2.3v4.3h-1.8V77h1.4l.3 1.1h.1c.3-.4.6-.7 1.1-1s1-.3 1.6-.3c2.1 0 3.1 1.1 3.1 3.2v5.6zm5.5.2c-1.1 0-1.9-.4-2.5-1.2s-.9-1.9-.9-3.3.3-2.5.9-3.3 1.5-1.2 2.5-1.2c1.1 0 2 .4 2.6 1.3h.1c-.1-.6-.1-1.1-.1-1.5v-3.1h1.8v12.2h-1.4l-.3-1.1h-.1c-.6.8-1.5 1.2-2.6 1.2zm.5-1.5c.8 0 1.3-.2 1.6-.6s.5-1.1.5-2.1v-.3c0-1.1-.2-1.9-.5-2.3s-.9-.7-1.7-.7c-.6 0-1.1.3-1.5.8s-.5 1.3-.5 2.2c0 1 .2 1.7.5 2.2s.9.8 1.6.8zM46.3 99.7c0 1.2-.4 2.1-1.2 2.7s-1.9 1-3.3 1h-1.2v4.3h-1.9V96.2H42c1.4 0 2.5.3 3.2.9s1.1 1.4 1.1 2.6zm-5.6 2.1h1c1 0 1.7-.2 2.1-.5s.7-.9.7-1.6c0-.7-.2-1.1-.6-1.5s-1-.5-1.9-.5h-1.3v4.1zm9.6 5.8h-1.8V95.5h1.8v12.1zm8 0l-.4-1.2h-.1c-.4.5-.8.9-1.3 1.1s-1 .3-1.6.3c-.8 0-1.5-.2-2-.7s-.7-1.1-.7-1.9c0-.9.3-1.6 1-2s1.7-.7 3-.7h1.5v-.5c0-.6-.1-1-.4-1.2s-.7-.4-1.2-.4c-.4 0-.9.1-1.3.2s-.8.3-1.2.5l-.6-1.3 1.5-.6c.5-.2 1.1-.2 1.6-.2 1.1 0 1.9.2 2.5.7s.8 1.2.8 2.3v5.8h-1.1zm-2.7-1.2c.7 0 1.2-.2 1.6-.6s.6-.9.6-1.6v-.8h-1.1c-.9 0-1.5.2-1.9.4s-.6.7-.6 1.2c0 .4.1.7.3.9s.6.5 1.1.5zm5.3-7.4h2l1.8 4.9c.3.7.4 1.4.5 2h.1c0-.3.1-.6.3-1s.8-2.4 2-5.8h2l-3.7 9.8c-.7 1.8-1.8 2.7-3.4 2.7-.4 0-.8 0-1.2-.1V110c.3.1.6.1.9.1.9 0 1.5-.5 1.9-1.5l.3-.8-3.5-8.8zm20.8 5.5c0 1-.4 1.8-1.1 2.4s-1.7.9-3 .9-2.3-.2-3.2-.6v-1.8c.5.2 1.1.4 1.7.6s1.1.2 1.6.2c.7 0 1.3-.1 1.6-.4s.5-.7.5-1.1c0-.4-.2-.8-.5-1.1s-1-.6-2-1.1c-1-.4-1.8-.9-2.2-1.4s-.6-1.2-.6-2c0-1 .3-1.7 1-2.2s1.6-.8 2.7-.8 2.2.2 3.3.7l-.6 1.5c-1-.4-1.9-.6-2.7-.6-.6 0-1.1.1-1.4.4s-.5.6-.5 1c0 .3.1.6.2.8s.3.4.6.6.8.4 1.5.7c.8.3 1.5.7 1.8 1s.7.6.9 1 .4.8.4 1.3zm5.2 1.8c.4 0 .9-.1 1.3-.2v1.4c-.2.1-.5.2-.8.2s-.7.1-1 .1c-1.7 0-2.6-.9-2.6-2.8v-4.7h-1.2v-.8l1.3-.7.6-1.8h1.1v2h2.5v1.4h-2.5v4.6c0 .4.1.8.3 1s.7.3 1 .3zm10.8-3c0 1.4-.4 2.5-1.1 3.3s-1.7 1.2-3 1.2c-.8 0-1.5-.2-2.1-.5s-1.1-.9-1.4-1.6-.5-1.5-.5-2.4c0-1.4.4-2.5 1.1-3.3s1.7-1.2 3-1.2c1.2 0 2.2.4 3 1.2s1 1.9 1 3.3zm-6.3 0c0 2 .7 3 2.2 3 1.5 0 2.2-1 2.2-3s-.7-3-2.2-3c-.8 0-1.3.3-1.7.8s-.5 1.3-.5 2.2zm12.8-4.5c.4 0 .7 0 .9.1l-.2 1.7c-.3-.1-.5-.1-.8-.1-.7 0-1.3.2-1.8.7s-.7 1.1-.7 1.9v4.5h-1.8V99h1.4l.2 1.5h.1c.3-.5.7-.9 1.1-1.2s1-.5 1.6-.5zm6.2 9c-1.3 0-2.4-.4-3.2-1.2s-1.1-1.9-1.1-3.2c0-1.4.4-2.5 1.1-3.3s1.7-1.2 2.9-1.2c1.1 0 2 .3 2.7 1s1 1.6 1 2.9v1H108c0 .8.3 1.5.7 1.9s1 .7 1.8.7c.5 0 1 0 1.4-.1s.9-.3 1.4-.5v1.5c-.4.2-.9.4-1.4.5s-.9 0-1.5 0zm-.3-7.6c-.6 0-1.1.2-1.4.6s-.6.9-.6 1.6h3.9c0-.7-.2-1.3-.5-1.6s-.8-.6-1.4-.6zm16.6 7.4h-6.5V96.2h6.5v1.6h-4.6v3.1h4.3v1.6h-4.3v3.6h4.6v1.5zm5.2.2c-1.1 0-1.9-.4-2.5-1.2s-.9-1.9-.9-3.3.3-2.5.9-3.3 1.5-1.2 2.5-1.2c1.1 0 2 .4 2.6 1.3h.1c-.1-.6-.1-1.1-.1-1.5v-3.1h1.8v12.2h-1.4l-.3-1.1h-.1c-.6.8-1.5 1.2-2.6 1.2zm.5-1.5c.8 0 1.3-.2 1.6-.6s.5-1.1.5-2.1v-.3c0-1.1-.2-1.9-.5-2.3s-.9-.7-1.7-.7c-.6 0-1.1.3-1.5.8s-.5 1.3-.5 2.2c0 1 .2 1.7.5 2.2s.9.8 1.6.8zm8.4 1.3H139V99h1.8v8.6zm-2-10.9c0-.3.1-.6.3-.8s.4-.3.8-.3c.3 0 .6.1.8.3s.3.4.3.8c0 .3-.1.6-.3.7s-.4.3-.8.3c-.3 0-.6-.1-.8-.3s-.3-.4-.3-.7zm7.8 9.6c.4 0 .9-.1 1.3-.2v1.4c-.2.1-.5.2-.8.2s-.7.1-1 .1c-1.7 0-2.6-.9-2.6-2.8v-4.7h-1.2v-.8l1.3-.7.6-1.8h1.1v2h2.5v1.4h-2.5v4.6c0 .4.1.8.3 1s.7.3 1 .3zm10.8-3c0 1.4-.4 2.5-1.1 3.3s-1.7 1.2-3 1.2c-.8 0-1.5-.2-2.1-.5s-1.1-.9-1.4-1.6-.5-1.5-.5-2.4c0-1.4.4-2.5 1.1-3.3s1.7-1.2 3-1.2c1.2 0 2.2.4 3 1.2s1 1.9 1 3.3zm-6.3 0c0 2 .7 3 2.2 3 1.5 0 2.2-1 2.2-3s-.7-3-2.2-3c-.8 0-1.3.3-1.7.8s-.5 1.3-.5 2.2zm12.7-4.5c.4 0 .7 0 .9.1l-.2 1.7c-.3-.1-.5-.1-.8-.1-.7 0-1.3.2-1.8.7s-.7 1.1-.7 1.9v4.5h-1.8V99h1.4l.2 1.5h.1c.3-.5.7-.9 1.1-1.2s1.1-.5 1.6-.5zm4-2.6l.1.2c-.3 1.1-.7 2.3-1.4 3.7h-1.3c.4-1.5.6-2.8.8-3.9h1.8zm7.5 9c0 .8-.3 1.5-.9 1.9s-1.5.7-2.6.7c-1.2 0-2.1-.2-2.8-.5v-1.6c1 .5 2 .7 2.8.7 1.1 0 1.7-.3 1.7-1 0-.2-.1-.4-.2-.5s-.3-.3-.6-.5-.7-.3-1.2-.5c-1-.4-1.7-.8-2-1.2s-.5-.9-.5-1.5c0-.7.3-1.3.9-1.7s1.4-.6 2.4-.6 2 .2 2.9.6l-.6 1.4c-.9-.4-1.7-.6-2.4-.6-1 0-1.5.3-1.5.8 0 .3.1.5.4.7s.8.4 1.7.8c.7.3 1.2.5 1.6.8s.6.5.7.8.2.6.2 1zm11.1-7.5c-1.1 0-1.9.4-2.5 1.1s-.9 1.8-.9 3.1c0 1.4.3 2.5.9 3.2s1.4 1.1 2.6 1.1c.5 0 1 0 1.4-.1s.9-.2 1.4-.4v1.6c-.9.3-1.9.5-3 .5-1.7 0-3-.5-3.9-1.5s-1.3-2.5-1.3-4.3c0-1.2.2-2.2.7-3.1s1.1-1.6 1.9-2 1.8-.7 2.9-.7c1.2 0 2.2.2 3.2.7l-.7 1.6c-.4-.2-.8-.3-1.2-.5s-1-.3-1.5-.3zm12.7 9.9h-1.8v-5.3c0-.7-.1-1.2-.4-1.5s-.7-.5-1.3-.5c-.8 0-1.3.2-1.7.7s-.5 1.2-.5 2.3v4.3h-1.8V95.5h1.8v3.1c0 .5 0 1-.1 1.6h.1c.2-.4.6-.7 1-1s1-.3 1.6-.3c2.1 0 3.1 1.1 3.1 3.2v5.5zm10.3-4.3c0 1.4-.4 2.5-1.1 3.3s-1.7 1.2-3 1.2c-.8 0-1.5-.2-2.1-.5s-1.1-.9-1.4-1.6-.5-1.5-.5-2.4c0-1.4.4-2.5 1.1-3.3s1.7-1.2 3-1.2c1.2 0 2.2.4 3 1.2s1 1.9 1 3.3zm-6.3 0c0 2 .7 3 2.2 3 1.5 0 2.2-1 2.2-3s-.7-3-2.2-3c-.8 0-1.3.3-1.7.8s-.5 1.3-.5 2.2zm10.2 4.3h-1.8V99h1.8v8.6zm-1.9-10.9c0-.3.1-.6.3-.8s.4-.3.8-.3c.3 0 .6.1.8.3s.3.4.3.8c0 .3-.1.6-.3.7s-.4.3-.8.3c-.3 0-.6-.1-.8-.3s-.3-.4-.3-.7zm8 11.1c-1.3 0-2.3-.4-3-1.1s-1-1.9-1-3.3c0-1.5.4-2.6 1.1-3.4s1.7-1.2 3.1-1.2c.9 0 1.7.2 2.5.5l-.6 1.5c-.8-.3-1.4-.5-1.9-.5-1.5 0-2.2 1-2.2 3 0 1 .2 1.7.6 2.2s.9.7 1.6.7c.8 0 1.6-.2 2.3-.6v1.6c-.3.2-.7.3-1.1.4s-.9.2-1.4.2zm8.2 0c-1.3 0-2.4-.4-3.2-1.2s-1.1-1.9-1.1-3.2c0-1.4.4-2.5 1.1-3.3s1.7-1.2 2.9-1.2c1.1 0 2 .3 2.7 1s1 1.6 1 2.9v1h-5.8c0 .8.3 1.5.7 1.9s1 .7 1.8.7c.5 0 1 0 1.4-.1s.9-.3 1.4-.5v1.5c-.4.2-.9.4-1.4.5s-.9 0-1.5 0zm-.3-7.6c-.6 0-1.1.2-1.4.6s-.6.9-.6 1.6h3.9c0-.7-.2-1.3-.5-1.6s-.8-.6-1.4-.6z"/>
</svg>
