<?xml version="1.0" encoding="utf-8"?>
<svg version="1.1" id="rating" xmlns="http://www.w3.org/2000/svg" xmlns:xlink="http://www.w3.org/1999/xlink" x="0px" y="0px"
	 viewBox="0 0 202 82" style="enable-background:new 0 0 202 82;" xml:space="preserve">
<style type="text/css">
	.st0{display:none;fill:#344554;}
	.st1{fill:#FFD216;}
	.st2{opacity:0.3;fill:none;stroke:#979797;enable-background:new    ;}
	.st3{fill:#344554;}
</style>
<path class="st0" d="M10.1,55.4H8.4V58H7.1v-2.6H1.6v-1.1L7,46.5h1.4v7.7h1.7C10.1,54.2,10.1,55.4,10.1,55.4z M7.1,54.2v-3.8
	c0-0.7,0-1.6,0.1-2.5H7.1c-0.2,0.5-0.5,0.9-0.7,1.2l-3.6,5.1H7.1z M11.6,57.2c0-0.3,0.1-0.6,0.2-0.8c0.2-0.2,0.4-0.3,0.7-0.3
	s0.5,0.1,0.7,0.3s0.3,0.4,0.3,0.8c0,0.3-0.1,0.6-0.3,0.8s-0.4,0.3-0.7,0.3s-0.5-0.1-0.7-0.2C11.6,57.8,11.6,57.5,11.6,57.2z
	 M16.9,58l4.7-10.2h-6.2v-1.2H23v1L18.3,58H16.9z M34.8,55.7c0,0.8-0.3,1.4-0.9,1.8s-1.4,0.6-2.5,0.6c-1.1,0-2-0.2-2.7-0.5v-1.2
	c0.4,0.2,0.9,0.4,1.3,0.5c0.5,0.1,0.9,0.2,1.4,0.2c0.7,0,1.2-0.1,1.6-0.3s0.5-0.5,0.5-1c0-0.3-0.1-0.6-0.4-0.9s-0.9-0.5-1.7-0.8
	s-1.4-0.6-1.7-0.8s-0.6-0.5-0.8-0.8s-0.2-0.6-0.2-1c0-0.7,0.3-1.2,0.9-1.7c0.6-0.4,1.3-0.6,2.3-0.6c0.9,0,1.8,0.2,2.7,0.6l-0.5,1.1
	c-0.9-0.4-1.6-0.5-2.3-0.5c-0.6,0-1.1,0.1-1.4,0.3S30,51.1,30,51.5c0,0.2,0.1,0.4,0.2,0.6s0.3,0.3,0.6,0.5c0.3,0.1,0.8,0.4,1.5,0.6
	c1,0.4,1.7,0.7,2.1,1.1C34.7,54.6,34.8,55.1,34.8,55.7z M39.7,57.1c0.2,0,0.5,0,0.7-0.1c0.2,0,0.4-0.1,0.5-0.1v1
	c-0.1,0.1-0.3,0.1-0.6,0.2s-0.5,0.1-0.7,0.1c-1.7,0-2.5-0.9-2.5-2.6v-5.1h-1.2v-0.6l1.2-0.5l0.5-1.8h0.8v2h2.5v1h-2.5v5
	c0,0.5,0.1,0.9,0.4,1.2C38.9,56.9,39.3,57.1,39.7,57.1z M47.9,58l-0.3-1.2h-0.1c-0.4,0.5-0.9,0.9-1.3,1.1c-0.4,0.2-1,0.3-1.6,0.3
	c-0.8,0-1.5-0.2-2-0.7c-0.5-0.4-0.7-1.1-0.7-1.9c0-1.7,1.4-2.6,4.1-2.7h1.5v-0.5c0-0.7-0.1-1.2-0.4-1.5s-0.8-0.5-1.4-0.5
	c-0.7,0-1.5,0.2-2.4,0.7l-0.4-1c0.4-0.2,0.9-0.4,1.4-0.5s1-0.2,1.5-0.2c1,0,1.8,0.2,2.3,0.7s0.7,1.2,0.7,2.2V58H47.9z M44.9,57.1
	c0.8,0,1.4-0.2,1.9-0.7s0.7-1.1,0.7-1.9v-0.8l-1.3,0.1c-1,0-1.8,0.2-2.2,0.5c-0.5,0.3-0.7,0.7-0.7,1.3c0,0.5,0.1,0.8,0.4,1.1
	C44,57,44.4,57.1,44.9,57.1z M55.4,49.3c0.4,0,0.7,0,1,0.1l-0.2,1.2c-0.4-0.1-0.7-0.1-0.9-0.1c-0.7,0-1.3,0.3-1.8,0.8
	s-0.7,1.3-0.7,2.1V58h-1.3v-8.6h1.1l0.1,1.6h0.1c0.3-0.6,0.7-1,1.1-1.3C54.4,49.4,54.9,49.3,55.4,49.3z M63.5,55.7
	c0,0.8-0.3,1.4-0.9,1.8s-1.4,0.6-2.5,0.6s-2-0.2-2.7-0.5v-1.2c0.4,0.2,0.9,0.4,1.3,0.5c0.5,0.1,0.9,0.2,1.4,0.2
	c0.7,0,1.2-0.1,1.6-0.3c0.4-0.2,0.5-0.5,0.5-1c0-0.3-0.1-0.6-0.4-0.9s-0.9-0.5-1.7-0.8s-1.4-0.6-1.7-0.8s-0.6-0.5-0.8-0.8
	s-0.2-0.6-0.2-1c0-0.7,0.3-1.2,0.9-1.7c0.6-0.4,1.3-0.6,2.3-0.6c0.9,0,1.8,0.2,2.7,0.6l-0.5,1.1c-0.9-0.4-1.6-0.5-2.3-0.5
	c-0.6,0-1.1,0.1-1.4,0.3s-0.5,0.5-0.5,0.8c0,0.2,0.1,0.4,0.2,0.6s0.3,0.3,0.6,0.5c0.3,0.1,0.8,0.4,1.5,0.6c1,0.4,1.7,0.7,2.1,1.1
	C63.4,54.6,63.5,55.1,63.5,55.7z M73.7,49.3c0.4,0,0.7,0,1,0.1l-0.2,1.2c-0.4-0.1-0.7-0.1-0.9-0.1c-0.7,0-1.3,0.3-1.8,0.8
	s-0.7,1.3-0.7,2.1V58h-1.3v-8.6h1.1L71,51h0.1c0.3-0.6,0.7-1,1.1-1.3C72.7,49.4,73.2,49.3,73.7,49.3z M81.6,58l-0.3-1.2h-0.1
	c-0.4,0.5-0.9,0.9-1.3,1.1c-0.4,0.2-1,0.3-1.6,0.3c-0.8,0-1.5-0.2-2-0.7c-0.5-0.4-0.7-1.1-0.7-1.9c0-1.7,1.4-2.6,4.1-2.7h1.5v-0.5
	c0-0.7-0.1-1.2-0.4-1.5s-0.8-0.5-1.4-0.5c-0.7,0-1.5,0.2-2.4,0.7l-0.4-1c0.4-0.2,0.9-0.4,1.4-0.5s1-0.2,1.5-0.2c1,0,1.8,0.2,2.3,0.7
	s0.7,1.2,0.7,2.2V58H81.6z M78.7,57.1c0.8,0,1.4-0.2,1.9-0.7s0.7-1.1,0.7-1.9v-0.8L80,53.8c-1,0-1.8,0.2-2.2,0.5
	c-0.5,0.3-0.7,0.7-0.7,1.3c0,0.5,0.1,0.8,0.4,1.1C77.8,57,78.2,57.1,78.7,57.1z M88,57.1c0.2,0,0.5,0,0.7-0.1c0.2,0,0.4-0.1,0.5-0.1
	v1C89,58,88.8,58,88.6,58.1s-0.5,0.1-0.7,0.1c-1.7,0-2.5-0.9-2.5-2.6v-5.1h-1.2v-0.6l1.2-0.5l0.5-1.8h0.8v2h2.5v1h-2.5v5
	c0,0.5,0.1,0.9,0.4,1.2C87.2,56.9,87.6,57.1,88,57.1z M90.8,47.1c0-0.3,0.1-0.5,0.2-0.7c0.1-0.1,0.3-0.2,0.5-0.2s0.4,0.1,0.5,0.2
	c0.2,0.1,0.2,0.4,0.2,0.6s-0.1,0.5-0.2,0.7c-0.2,0.1-0.3,0.2-0.5,0.2s-0.4-0.1-0.5-0.2C90.9,47.6,90.8,47.4,90.8,47.1z M92.2,58
	h-1.3v-8.6h1.3V58z M100.8,58v-5.5c0-0.7-0.2-1.2-0.5-1.6c-0.3-0.3-0.8-0.5-1.5-0.5c-0.9,0-1.6,0.2-2,0.7s-0.6,1.3-0.6,2.4V58h-1.3
	v-8.6H96l0.2,1.2h0.1c0.3-0.4,0.6-0.7,1.1-1c0.5-0.2,1-0.3,1.6-0.3c1,0,1.8,0.2,2.3,0.7s0.8,1.3,0.8,2.4V58H100.8z M111.8,49.4v0.8
	l-1.6,0.2c0.1,0.2,0.3,0.4,0.4,0.7s0.2,0.6,0.2,1c0,0.8-0.3,1.5-0.9,2s-1.4,0.8-2.4,0.8c-0.3,0-0.5,0-0.7-0.1
	c-0.6,0.3-0.8,0.7-0.8,1.1c0,0.2,0.1,0.4,0.3,0.5c0.2,0.1,0.5,0.2,1,0.2h1.5c0.9,0,1.6,0.2,2.1,0.6c0.5,0.4,0.7,1,0.7,1.7
	c0,0.9-0.4,1.7-1.1,2.2c-0.8,0.5-1.9,0.7-3.3,0.7c-1.1,0-2-0.2-2.6-0.6c-0.6-0.4-0.9-1-0.9-1.8c0-0.5,0.2-1,0.5-1.4s0.8-0.6,1.4-0.8
	c-0.2-0.1-0.4-0.3-0.6-0.5s-0.2-0.5-0.2-0.7c0-0.3,0.1-0.6,0.2-0.8c0.2-0.2,0.4-0.5,0.8-0.7c-0.4-0.2-0.8-0.5-1.1-0.9
	c-0.3-0.4-0.4-0.9-0.4-1.5c0-0.9,0.3-1.7,0.8-2.2s1.4-0.8,2.4-0.8c0.4,0,0.9,0.1,1.2,0.2L111.8,49.4L111.8,49.4z M104.9,59.4
	c0,0.5,0.2,0.8,0.6,1.1s1,0.4,1.7,0.4c1.1,0,1.9-0.2,2.4-0.5s0.8-0.8,0.8-1.3s-0.1-0.8-0.4-1s-0.8-0.3-1.6-0.3h-1.6
	c-0.6,0-1,0.1-1.4,0.4S104.9,58.9,104.9,59.4z M105.6,52.2c0,0.6,0.2,1.1,0.5,1.4c0.3,0.3,0.8,0.5,1.4,0.5c1.3,0,1.9-0.6,1.9-1.8
	c0-1.3-0.6-1.9-1.9-1.9c-0.6,0-1.1,0.2-1.4,0.5S105.6,51.5,105.6,52.2z M122.9,58l-0.3-1.2h-0.1c-0.4,0.5-0.9,0.9-1.3,1.1
	c-0.4,0.2-1,0.3-1.6,0.3c-0.8,0-1.5-0.2-2-0.7c-0.5-0.4-0.7-1.1-0.7-1.9c0-1.7,1.4-2.6,4.1-2.7h1.5v-0.5c0-0.7-0.1-1.2-0.4-1.5
	s-0.8-0.5-1.4-0.5c-0.7,0-1.5,0.2-2.4,0.7l-0.4-1c0.4-0.2,0.9-0.4,1.4-0.5s1-0.2,1.5-0.2c1,0,1.8,0.2,2.3,0.7s0.7,1.2,0.7,2.2V58
	H122.9z M120,57.1c0.8,0,1.4-0.2,1.9-0.7s0.7-1.1,0.7-1.9v-0.8l-1.3,0.1c-1,0-1.8,0.2-2.2,0.5c-0.5,0.3-0.7,0.7-0.7,1.3
	c0,0.5,0.1,0.8,0.4,1.1C119.1,57,119.5,57.1,120,57.1z M132.4,58v-5.5c0-0.7-0.2-1.2-0.5-1.6c-0.3-0.3-0.8-0.5-1.5-0.5
	c-0.9,0-1.6,0.2-2,0.7c-0.4,0.5-0.6,1.3-0.6,2.4V58h-1.3v-8.6h1.1l0.2,1.2h0.1c0.3-0.4,0.6-0.7,1.1-1c0.5-0.2,1-0.3,1.6-0.3
	c1,0,1.8,0.2,2.3,0.7s0.8,1.3,0.8,2.4V58H132.4z M142.2,56.9L142.2,56.9c-0.7,0.9-1.6,1.3-2.8,1.3c-1.1,0-2-0.4-2.6-1.1
	c-0.6-0.8-0.9-1.9-0.9-3.3s0.3-2.5,0.9-3.3s1.5-1.2,2.6-1.2c1.2,0,2.1,0.4,2.7,1.3h0.1l-0.1-0.6v-0.6v-3.5h1.3V58h-1.1L142.2,56.9z
	 M139.6,57.1c0.9,0,1.5-0.2,1.9-0.7s0.6-1.3,0.6-2.3v-0.3c0-1.2-0.2-2.1-0.6-2.6c-0.4-0.5-1-0.8-1.9-0.8c-0.8,0-1.3,0.3-1.7,0.9
	c-0.4,0.6-0.6,1.4-0.6,2.5s0.2,1.9,0.6,2.5C138.3,56.8,138.9,57.1,139.6,57.1z M156.8,49.3c0,0.7-0.2,1.3-0.6,1.8
	c-0.4,0.5-1,0.8-1.7,0.9l0,0c0.9,0.1,1.6,0.4,2,0.9s0.7,1.1,0.7,1.8c0,1.1-0.4,1.9-1.1,2.5c-0.8,0.6-1.8,0.9-3.2,0.9
	c-0.6,0-1.2,0-1.7-0.1s-1-0.3-1.5-0.5v-1.2c0.5,0.2,1,0.4,1.6,0.6c0.6,0.1,1.1,0.2,1.6,0.2c2,0,3-0.8,3-2.3c0-1.4-1.1-2.1-3.3-2.1
	h-1.1v-1.1h1.1c0.9,0,1.6-0.2,2.1-0.6c0.5-0.4,0.8-0.9,0.8-1.6c0-0.6-0.2-1-0.6-1.3s-0.9-0.5-1.6-0.5c-0.5,0-1,0.1-1.4,0.2
	c-0.4,0.1-0.9,0.4-1.5,0.8l-0.7-0.9c0.5-0.4,1-0.7,1.6-0.9s1.3-0.3,1.9-0.3c1.1,0,2,0.3,2.6,0.8C156.5,47.7,156.8,48.4,156.8,49.3z
	 M162.5,51c1.2,0,2.1,0.3,2.8,0.9c0.7,0.6,1,1.4,1,2.4c0,1.2-0.4,2.1-1.1,2.8c-0.8,0.7-1.8,1-3.1,1s-2.3-0.2-2.9-0.6v-1.2
	c0.4,0.2,0.8,0.4,1.4,0.6c0.5,0.1,1.1,0.2,1.6,0.2c0.9,0,1.6-0.2,2.1-0.6s0.8-1.1,0.8-1.9c0-1.6-1-2.4-2.9-2.4c-0.5,0-1.2,0.1-2,0.2
	l-0.7-0.4l0.4-5.3h5.7v1.2H161l-0.3,3.4C161.3,51.1,161.9,51,162.5,51z M179.8,52.3c0,2-0.3,3.4-0.9,4.4c-0.6,1-1.6,1.5-2.9,1.5
	c-1.2,0-2.2-0.5-2.8-1.5s-1-2.5-1-4.4c0-2,0.3-3.5,0.9-4.4c0.6-1,1.6-1.4,2.8-1.4s2.2,0.5,2.8,1.5C179.5,48.9,179.8,50.4,179.8,52.3
	z M173.5,52.3c0,1.7,0.2,2.9,0.6,3.6s1,1.1,1.9,1.1s1.5-0.4,1.9-1.2s0.6-2,0.6-3.6s-0.2-2.8-0.6-3.6c-0.4-0.8-1-1.1-1.9-1.1
	s-1.5,0.4-1.9,1.1S173.5,50.6,173.5,52.3z M188.9,52.3c0,2-0.3,3.4-0.9,4.4c-0.6,1-1.6,1.5-2.9,1.5c-1.2,0-2.2-0.5-2.8-1.5
	s-1-2.5-1-4.4c0-2,0.3-3.5,0.9-4.4c0.6-1,1.6-1.4,2.8-1.4s2.2,0.5,2.8,1.5C188.6,48.9,188.9,50.4,188.9,52.3z M182.7,52.3
	c0,1.7,0.2,2.9,0.6,3.6s1,1.1,1.9,1.1s1.5-0.4,1.9-1.2s0.6-2,0.6-3.6s-0.2-2.8-0.6-3.6c-0.4-0.8-1-1.1-1.9-1.1s-1.5,0.4-1.9,1.1
	S182.7,50.6,182.7,52.3z M198.1,52.3c0,2-0.3,3.4-0.9,4.4c-0.6,1-1.6,1.5-2.9,1.5c-1.2,0-2.2-0.5-2.8-1.5s-1-2.5-1-4.4
	c0-2,0.3-3.5,0.9-4.4c0.6-1,1.6-1.4,2.8-1.4s2.2,0.5,2.8,1.5C197.8,48.9,198.1,50.4,198.1,52.3z M191.8,52.3c0,1.7,0.2,2.9,0.6,3.6
	s1,1.1,1.9,1.1s1.5-0.4,1.9-1.2s0.6-2,0.6-3.6s-0.2-2.8-0.6-3.6c-0.4-0.8-1-1.1-1.9-1.1s-1.5,0.4-1.9,1.1S191.8,50.6,191.8,52.3z"/>
<path class="st0" d="M18.7,71.3c0.4,0,0.7,0,1,0.1l-0.2,1.2c-0.4-0.1-0.7-0.1-0.9-0.1c-0.7,0-1.3,0.3-1.8,0.8s-0.7,1.3-0.7,2.1V80
	h-1.3v-8.6h1.1L16,73h0.1c0.3-0.6,0.7-1,1.1-1.3C17.7,71.4,18.2,71.3,18.7,71.3z M25,80.2c-1.3,0-2.3-0.4-3-1.2
	c-0.7-0.8-1.1-1.8-1.1-3.2c0-1.4,0.3-2.5,1-3.3s1.6-1.2,2.7-1.2s1.9,0.4,2.5,1.1S28,74,28,75.2V76h-5.9c0,1,0.3,1.8,0.8,2.3
	s1.2,0.8,2,0.8c0.9,0,1.8-0.2,2.7-0.6v1.2c-0.5,0.2-0.9,0.3-1.3,0.4C26,80.1,25.5,80.2,25,80.2z M24.6,72.4c-0.7,0-1.2,0.2-1.6,0.7
	c-0.4,0.4-0.6,1.1-0.7,1.9h4.5c0-0.8-0.2-1.4-0.5-1.9C25.8,72.6,25.3,72.4,24.6,72.4z M32.2,80L29,71.4h1.4l1.8,5.1
	c0.4,1.2,0.7,2,0.7,2.3H33c0.1-0.3,0.2-0.8,0.5-1.7s1-2.8,2.1-5.7H37L33.7,80H32.2z M38.2,69.1c0-0.3,0.1-0.5,0.2-0.7
	c0.1-0.1,0.3-0.2,0.5-0.2s0.4,0.1,0.5,0.2c0.2,0.1,0.2,0.4,0.2,0.6s-0.1,0.5-0.2,0.7c0,0.2-0.2,0.3-0.4,0.3s-0.4-0.1-0.5-0.2
	C38.3,69.6,38.2,69.4,38.2,69.1z M39.6,80h-1.3v-8.6h1.3V80z M46,80.2c-1.3,0-2.3-0.4-3-1.2c-0.7-0.8-1.1-1.8-1.1-3.2
	c0-1.4,0.3-2.5,1-3.3s1.6-1.2,2.7-1.2c1.1,0,1.9,0.4,2.5,1.1S49,74,49,75.2V76h-5.9c0,1,0.3,1.8,0.8,2.3s1.2,0.8,2,0.8
	c0.9,0,1.8-0.2,2.7-0.6v1.2c-0.5,0.2-0.9,0.3-1.3,0.4C47.1,80.1,46.6,80.2,46,80.2z M45.6,72.4c-0.7,0-1.2,0.2-1.6,0.7
	c-0.4,0.4-0.6,1.1-0.7,1.9h4.5c0-0.8-0.2-1.4-0.5-1.9C46.8,72.6,46.3,72.4,45.6,72.4z M58.3,80l-1.6-5c-0.1-0.3-0.3-1-0.6-2.1H56
	c-0.2,0.9-0.4,1.6-0.5,2.1L54,80h-1.5l-2.3-8.6h1.4c0.6,2.2,1,3.8,1.3,4.9s0.5,1.9,0.5,2.3h0.1c0.1-0.3,0.1-0.7,0.3-1.2
	c0.1-0.5,0.2-0.8,0.3-1.1l1.6-4.9h1.4l1.5,4.9c0.3,0.9,0.5,1.6,0.6,2.3h0.1c0-0.2,0.1-0.5,0.2-0.9c0.1-0.4,0.6-2.5,1.6-6.3h1.3
	L59.9,80H58.3z M69.3,77.7c0,0.8-0.3,1.4-0.9,1.8s-1.4,0.6-2.5,0.6s-2-0.2-2.7-0.5v-1.2c0.4,0.2,0.9,0.4,1.3,0.5
	c0.5,0.1,0.9,0.2,1.4,0.2c0.7,0,1.2-0.1,1.6-0.3c0.4-0.2,0.5-0.5,0.5-1c0-0.3-0.1-0.6-0.4-0.9s-0.9-0.5-1.7-0.8
	c-0.8-0.3-1.4-0.6-1.7-0.8s-0.6-0.5-0.8-0.8s-0.2-0.6-0.2-1c0-0.7,0.3-1.2,0.9-1.7c0.6-0.4,1.3-0.6,2.3-0.6c0.9,0,1.8,0.2,2.7,0.6
	l-0.5,1.1c-0.9-0.4-1.6-0.5-2.3-0.5c-0.6,0-1.1,0.1-1.4,0.3s-0.5,0.5-0.5,0.8c0,0.2,0.1,0.4,0.2,0.6s0.3,0.3,0.6,0.5
	c0.3,0.1,0.8,0.4,1.5,0.6c1,0.4,1.7,0.7,2.1,1.1C69.1,76.6,69.3,77.1,69.3,77.7z M79.4,72.4h-2.2V80H76v-7.6h-1.5v-0.6l1.5-0.5v-0.5
	c0-2.1,0.9-3.2,2.8-3.2c0.5,0,1,0.1,1.6,0.3l-0.3,1c-0.5-0.2-0.9-0.2-1.3-0.2c-0.5,0-0.9,0.2-1.1,0.5s-0.4,0.8-0.4,1.6v0.6h2.2
	L79.4,72.4L79.4,72.4z M84.9,71.3c0.4,0,0.7,0,1,0.1l-0.2,1.2c-0.4-0.1-0.7-0.1-0.9-0.1c-0.7,0-1.3,0.3-1.8,0.8s-0.7,1.3-0.7,2.1V80
	H81v-8.6h1.1l0.1,1.6h0.1c0.3-0.6,0.7-1,1.1-1.3C83.9,71.4,84.4,71.3,84.9,71.3z M94.9,75.7c0,1.4-0.4,2.5-1.1,3.3s-1.7,1.2-2.9,1.2
	c-0.8,0-1.4-0.2-2-0.5s-1.1-0.9-1.4-1.5c-0.3-0.7-0.5-1.5-0.5-2.4c0-1.4,0.3-2.5,1-3.3s1.7-1.2,2.9-1.2c1.2,0,2.1,0.4,2.9,1.2
	C94.6,73.3,94.9,74.4,94.9,75.7z M88.4,75.7c0,1.1,0.2,1.9,0.7,2.5s1.1,0.9,1.9,0.9s1.5-0.3,1.9-0.9s0.7-1.4,0.7-2.5
	s-0.2-1.9-0.7-2.5c-0.4-0.6-1.1-0.8-1.9-0.8s-1.5,0.3-1.9,0.8C88.6,73.8,88.4,74.6,88.4,75.7z M108.1,80v-5.6c0-0.7-0.1-1.2-0.4-1.5
	s-0.7-0.5-1.4-0.5c-0.8,0-1.4,0.2-1.8,0.7s-0.6,1.2-0.6,2.1V80h-1.3v-5.6c0-0.7-0.1-1.2-0.4-1.5s-0.7-0.5-1.4-0.5
	c-0.8,0-1.4,0.2-1.8,0.7s-0.6,1.3-0.6,2.4V80h-1.3v-8.6h1.1l0.2,1.2h0.1c0.2-0.4,0.6-0.7,1-1s0.9-0.4,1.5-0.4c1.3,0,2.2,0.5,2.6,1.5
	h0.1c0.3-0.4,0.6-0.8,1.1-1.1s1-0.4,1.7-0.4c1,0,1.7,0.2,2.2,0.7s0.7,1.3,0.7,2.4V80H108.1z M123.6,75.7c0,1.4-0.4,2.5-1.1,3.3
	s-1.7,1.2-2.9,1.2c-0.8,0-1.4-0.2-2-0.5s-1.1-0.9-1.4-1.5c-0.3-0.7-0.5-1.5-0.5-2.4c0-1.4,0.3-2.5,1-3.3s1.7-1.2,2.9-1.2
	c1.2,0,2.1,0.4,2.9,1.2C123.3,73.3,123.6,74.4,123.6,75.7z M117.1,75.7c0,1.1,0.2,1.9,0.7,2.5s1.1,0.9,1.9,0.9s1.5-0.3,1.9-0.9
	s0.7-1.4,0.7-2.5s-0.2-1.9-0.7-2.5c-0.4-0.6-1.1-0.8-1.9-0.8s-1.5,0.3-1.9,0.8C117.3,73.8,117.1,74.6,117.1,75.7z M127.1,71.4V77
	c0,0.7,0.2,1.2,0.5,1.6c0.3,0.3,0.8,0.5,1.5,0.5c0.9,0,1.6-0.2,2-0.7s0.6-1.3,0.6-2.4v-4.5h1.3V80h-1.1l-0.2-1.1h-0.1
	c-0.3,0.4-0.6,0.7-1.1,1c-0.5,0.2-1,0.3-1.6,0.3c-1,0-1.8-0.2-2.3-0.7s-0.8-1.3-0.8-2.4v-5.6h1.3V71.4z M139.6,71.3
	c0.4,0,0.7,0,1,0.1l-0.2,1.2c-0.4-0.1-0.7-0.1-0.9-0.1c-0.7,0-1.3,0.3-1.8,0.8s-0.7,1.3-0.7,2.1V80h-1.3v-8.6h1.1l0.1,1.6h0.1
	c0.3-0.6,0.7-1,1.1-1.3C138.6,71.4,139.1,71.3,139.6,71.3z M147.6,71.4V77c0,0.7,0.2,1.2,0.5,1.6c0.3,0.3,0.8,0.5,1.5,0.5
	c0.9,0,1.6-0.2,2-0.7s0.6-1.3,0.6-2.4v-4.5h1.3V80h-1.1l-0.2-1.1h-0.1c-0.3,0.4-0.6,0.7-1.1,1c-0.5,0.2-1,0.3-1.6,0.3
	c-1,0-1.8-0.2-2.3-0.7s-0.8-1.3-0.8-2.4v-5.6h1.3V71.4z M161.8,77.7c0,0.8-0.3,1.4-0.9,1.8s-1.4,0.6-2.5,0.6s-2-0.2-2.7-0.5v-1.2
	c0.4,0.2,0.9,0.4,1.3,0.5c0.5,0.1,0.9,0.2,1.4,0.2c0.7,0,1.2-0.1,1.6-0.3c0.4-0.2,0.5-0.5,0.5-1c0-0.3-0.1-0.6-0.4-0.9
	s-0.9-0.5-1.7-0.8s-1.4-0.6-1.7-0.8s-0.6-0.5-0.8-0.8s-0.2-0.6-0.2-1c0-0.7,0.3-1.2,0.9-1.7c0.6-0.4,1.3-0.6,2.3-0.6
	c0.9,0,1.8,0.2,2.7,0.6l-0.5,1.1c-0.9-0.4-1.6-0.5-2.3-0.5c-0.6,0-1.1,0.1-1.4,0.3s-0.5,0.5-0.5,0.8c0,0.2,0.1,0.4,0.2,0.6
	s0.3,0.3,0.6,0.5c0.3,0.1,0.8,0.4,1.5,0.6c1,0.4,1.7,0.7,2.1,1.1C161.6,76.6,161.8,77.1,161.8,77.7z M167.5,80.2
	c-1.3,0-2.3-0.4-3-1.2c-0.7-0.8-1.1-1.8-1.1-3.2c0-1.4,0.3-2.5,1-3.3s1.6-1.2,2.7-1.2c1.1,0,1.9,0.4,2.5,1.1s0.9,1.6,0.9,2.8V76
	h-5.9c0,1,0.3,1.8,0.8,2.3s1.2,0.8,2,0.8c0.9,0,1.8-0.2,2.7-0.6v1.2c-0.5,0.2-0.9,0.3-1.3,0.4C168.6,80.1,168.1,80.2,167.5,80.2z
	 M167.1,72.4c-0.7,0-1.2,0.2-1.6,0.7c-0.4,0.4-0.7,1.1-0.7,1.9h4.5c0-0.8-0.2-1.4-0.5-1.9C168.3,72.6,167.8,72.4,167.1,72.4z
	 M176.8,71.3c0.4,0,0.7,0,1,0.1l-0.2,1.2c-0.4-0.1-0.7-0.1-0.9-0.1c-0.7,0-1.3,0.3-1.8,0.8s-0.7,1.3-0.7,2.1V80h-1.3v-8.6h1.1
	l0.1,1.6h0.1c0.3-0.6,0.7-1,1.1-1.3C175.7,71.4,176.2,71.3,176.8,71.3z M184.9,77.7c0,0.8-0.3,1.4-0.9,1.8s-1.4,0.6-2.5,0.6
	s-2-0.2-2.7-0.5v-1.2c0.4,0.2,0.9,0.4,1.3,0.5c0.5,0.1,0.9,0.2,1.4,0.2c0.7,0,1.2-0.1,1.6-0.3c0.4-0.2,0.5-0.5,0.5-1
	c0-0.3-0.1-0.6-0.4-0.9s-0.9-0.5-1.7-0.8s-1.4-0.6-1.7-0.8s-0.6-0.5-0.8-0.8s-0.2-0.6-0.2-1c0-0.7,0.3-1.2,0.9-1.7
	c0.6-0.4,1.3-0.6,2.3-0.6c0.9,0,1.8,0.2,2.7,0.6l-0.5,1.1c-0.9-0.4-1.6-0.5-2.3-0.5c-0.6,0-1.1,0.1-1.4,0.3s-0.5,0.5-0.5,0.8
	c0,0.2,0.1,0.4,0.2,0.6s0.3,0.3,0.6,0.5c0.3,0.1,0.8,0.4,1.5,0.6c1,0.4,1.7,0.7,2.1,1.1C184.7,76.6,184.9,77.1,184.9,77.7z"/>
<path id="stars" class="st1" d="M74,22.5l-7.9,4.2c-0.2,0.1-0.5,0-0.7-0.2c-0.1-0.1-0.1-0.2-0.1-0.3l1.5-8.8l-6.4-6.2
	c-0.2-0.2-0.2-0.5,0-0.7c0.1-0.1,0.2-0.1,0.3-0.1l8.9-1.3l4-8c0.1-0.2,0.4-0.3,0.7-0.2c0.1,0,0.2,0.1,0.2,0.2l4,8l8.9,1.3
	c0.3,0,0.5,0.3,0.4,0.6c0,0.1-0.1,0.2-0.1,0.3l-6.4,6.2l1.5,8.8c0,0.3-0.1,0.5-0.4,0.6c-0.1,0-0.2,0-0.3-0.1L74,22.5z M105,22.5
	l-7.9,4.2c-0.2,0.1-0.5,0-0.7-0.2c-0.1-0.1-0.1-0.2-0.1-0.3l1.5-8.8l-6.4-6.2c-0.2-0.2-0.2-0.5,0-0.7c0.1-0.1,0.2-0.1,0.3-0.1
	l8.9-1.3l4-8c0.1-0.2,0.4-0.3,0.7-0.2c0.1,0,0.2,0.1,0.2,0.2l4,8l8.9,1.3c0.3,0,0.5,0.3,0.4,0.6c0,0.1-0.1,0.2-0.1,0.3l-6.4,6.2
	l1.5,8.8c0,0.3-0.1,0.5-0.4,0.6c-0.1,0-0.2,0-0.3-0.1L105,22.5z M136,22.5l-7.9,4.2c-0.2,0.1-0.5,0-0.7-0.2
	c-0.1-0.1-0.1-0.2-0.1-0.3l1.5-8.8l-6.4-6.2c-0.2-0.2-0.2-0.5,0-0.7c0.1-0.1,0.2-0.1,0.3-0.1l8.9-1.3l4-8c0.1-0.2,0.4-0.3,0.7-0.2
	c0.1,0,0.2,0.1,0.2,0.2l4,8l8.9,1.3c0.3,0,0.5,0.3,0.4,0.6c0,0.1-0.1,0.2-0.1,0.3l-6.4,6.2l1.5,8.8c0,0.3-0.1,0.5-0.4,0.6
	c-0.1,0-0.2,0-0.3-0.1L136,22.5z M43,22.5l-7.9,4.2c-0.2,0.1-0.5,0-0.7-0.2c-0.1-0.1-0.1-0.2-0.1-0.3l1.5-8.8l-6.4-6.2
	c-0.2-0.2-0.2-0.5,0-0.7c0.1-0.1,0.2-0.1,0.3-0.1l8.9-1.3l4-8c0.1-0.2,0.4-0.3,0.7-0.2c0.1,0,0.2,0.1,0.2,0.2l4,8l8.9,1.3
	c0.3,0,0.5,0.3,0.4,0.6c0,0.1-0.1,0.2-0.1,0.3l-6.4,6.2l1.5,8.8c0,0.3-0.1,0.5-0.4,0.6c-0.1,0-0.2,0-0.3-0.1L43,22.5z"/>
<path id="Star_3_" class="st2" d="M158.8,26.2l8.2-4.3l8.2,4.3l-1.6-9.1l6.6-6.4l-9.1-1.3L167,1.1l-4.1,8.3l-9.1,1.3l6.6,6.4
	L158.8,26.2z"/>
<path id="Combined-Shape" class="st1" d="M170,6.1v18l-3-1.6l-7.9,4.2c-0.2,0.1-0.5,0-0.7-0.2c-0.1-0.1-0.1-0.2-0.1-0.3l1.5-8.8
	l-6.4-6.2c-0.2-0.2-0.2-0.5,0-0.7c0.1-0.1,0.2-0.1,0.3-0.1l8.9-1.3l4-8c0.1-0.2,0.4-0.3,0.7-0.2c0.1,0,0.2,0.1,0.2,0.2L170,6.1z"/>
<path class="st3" d="M9,55.5H7.5v2.5H5.7v-2.5H0.5v-1.4l5.2-7.5h1.8v7.4H9V55.5z M5.7,53.9v-2.9c0-1,0-1.8,0.1-2.5H5.7
	c-0.1,0.3-0.4,0.8-0.7,1.2l-2.8,4.1H5.7z M10.4,57c0-0.4,0.1-0.7,0.3-0.9c0.2-0.2,0.5-0.3,0.9-0.3c0.4,0,0.7,0.1,0.9,0.3
	s0.3,0.5,0.3,0.9c0,0.4-0.1,0.7-0.3,0.9c-0.2,0.2-0.5,0.3-0.9,0.3c-0.4,0-0.7-0.1-0.9-0.3S10.4,57.3,10.4,57z M15.7,57.9l4.5-9.7
	h-5.9v-1.6h7.9v1.3l-4.5,10.1H15.7z M34,55.5c0,0.8-0.3,1.5-0.9,1.9c-0.6,0.4-1.5,0.7-2.6,0.7c-1.1,0-2.1-0.2-2.8-0.5V56
	c1,0.5,2,0.7,2.8,0.7c1.1,0,1.7-0.3,1.7-1c0-0.2-0.1-0.4-0.2-0.5c-0.1-0.1-0.3-0.3-0.6-0.5c-0.3-0.2-0.7-0.3-1.2-0.5
	c-1-0.4-1.7-0.8-2-1.2s-0.5-0.9-0.5-1.5c0-0.7,0.3-1.3,0.9-1.7s1.4-0.6,2.4-0.6c1,0,2,0.2,2.9,0.6l-0.6,1.4
	c-0.9-0.4-1.7-0.6-2.3-0.6c-1,0-1.4,0.3-1.4,0.8c0,0.3,0.1,0.5,0.4,0.7s0.8,0.4,1.6,0.8c0.7,0.3,1.2,0.5,1.5,0.8
	c0.3,0.2,0.6,0.5,0.7,0.8C33.9,54.7,34,55.1,34,55.5z M39.2,56.6c0.4,0,0.9-0.1,1.3-0.2v1.4c-0.2,0.1-0.5,0.2-0.8,0.2
	c-0.3,0.1-0.6,0.1-1,0.1c-1.7,0-2.6-0.9-2.6-2.7v-4.6H35v-0.8l1.3-0.7l0.6-1.8H38v1.9h2.4v1.4H38v4.6c0,0.4,0.1,0.8,0.3,1
	S38.8,56.6,39.2,56.6z M47.6,57.9l-0.4-1.2h-0.1c-0.4,0.5-0.8,0.9-1.3,1.1c-0.4,0.2-1,0.3-1.6,0.3c-0.8,0-1.5-0.2-2-0.7
	s-0.7-1.1-0.7-1.9c0-0.9,0.3-1.6,1-2c0.7-0.5,1.7-0.7,3-0.7l1.5,0v-0.5c0-0.5-0.1-1-0.4-1.2c-0.3-0.3-0.7-0.4-1.2-0.4
	c-0.4,0-0.9,0.1-1.3,0.2s-0.8,0.3-1.2,0.5l-0.6-1.3c0.5-0.2,1-0.4,1.5-0.6c0.6-0.1,1.1-0.2,1.6-0.2c1.1,0,1.9,0.2,2.5,0.7
	c0.6,0.5,0.8,1.2,0.8,2.2v5.8H47.6z M44.9,56.7c0.7,0,1.2-0.2,1.6-0.6c0.4-0.4,0.6-0.9,0.6-1.6v-0.7l-1.1,0c-0.9,0-1.5,0.2-1.9,0.4
	c-0.4,0.3-0.6,0.6-0.6,1.2c0,0.4,0.1,0.7,0.3,0.9C44.1,56.6,44.5,56.7,44.9,56.7z M55.8,49.2c0.4,0,0.7,0,0.9,0.1L56.6,51
	c-0.3-0.1-0.5-0.1-0.8-0.1c-0.7,0-1.3,0.2-1.8,0.7s-0.7,1.1-0.7,1.9v4.5h-1.8v-8.6h1.4l0.2,1.5h0.1c0.3-0.5,0.7-0.9,1.1-1.2
	C54.8,49.3,55.3,49.2,55.8,49.2z M64.1,55.5c0,0.8-0.3,1.5-0.9,1.9s-1.5,0.7-2.6,0.7c-1.1,0-2.1-0.2-2.8-0.5V56c1,0.5,2,0.7,2.8,0.7
	c1.1,0,1.7-0.3,1.7-1c0-0.2-0.1-0.4-0.2-0.5s-0.3-0.3-0.6-0.5c-0.3-0.2-0.7-0.3-1.2-0.5c-1-0.4-1.7-0.8-2-1.2s-0.5-0.9-0.5-1.5
	c0-0.7,0.3-1.3,0.9-1.7s1.4-0.6,2.4-0.6c1,0,2,0.2,2.9,0.6l-0.6,1.4c-0.9-0.4-1.7-0.6-2.3-0.6c-1,0-1.4,0.3-1.4,0.8
	c0,0.3,0.1,0.5,0.4,0.7c0.3,0.2,0.8,0.4,1.6,0.8c0.7,0.3,1.2,0.5,1.5,0.8c0.3,0.2,0.6,0.5,0.7,0.8C64.1,54.7,64.1,55.1,64.1,55.5z
	 M74.6,49.2c0.4,0,0.7,0,0.9,0.1L75.3,51c-0.3-0.1-0.5-0.1-0.8-0.1c-0.7,0-1.3,0.2-1.8,0.7s-0.7,1.1-0.7,1.9v4.5h-1.8v-8.6h1.4
	l0.2,1.5H72c0.3-0.5,0.7-0.9,1.1-1.2C73.6,49.3,74.1,49.2,74.6,49.2z M82.5,57.9l-0.4-1.2h-0.1c-0.4,0.5-0.8,0.9-1.3,1.1
	c-0.4,0.2-1,0.3-1.6,0.3c-0.8,0-1.5-0.2-2-0.7c-0.5-0.5-0.7-1.1-0.7-1.9c0-0.9,0.3-1.6,1-2s1.7-0.7,3-0.7l1.5,0v-0.5
	c0-0.5-0.1-1-0.4-1.2c-0.3-0.3-0.7-0.4-1.2-0.4c-0.4,0-0.9,0.1-1.3,0.2c-0.4,0.1-0.8,0.3-1.2,0.5l-0.6-1.3c0.5-0.2,1-0.4,1.5-0.6
	c0.6-0.1,1.1-0.2,1.6-0.2c1.1,0,1.9,0.2,2.5,0.7s0.8,1.2,0.8,2.2v5.8H82.5z M79.8,56.7c0.7,0,1.2-0.2,1.6-0.6
	c0.4-0.4,0.6-0.9,0.6-1.6v-0.7l-1.1,0c-0.9,0-1.5,0.2-1.9,0.4c-0.4,0.3-0.6,0.6-0.6,1.2c0,0.4,0.1,0.7,0.3,0.9
	C79,56.6,79.3,56.7,79.8,56.7z M89.6,56.6c0.4,0,0.9-0.1,1.3-0.2v1.4c-0.2,0.1-0.5,0.2-0.8,0.2c-0.3,0.1-0.6,0.1-1,0.1
	c-1.7,0-2.6-0.9-2.6-2.7v-4.6h-1.2v-0.8l1.3-0.7l0.6-1.8h1.1v1.9h2.4v1.4h-2.4v4.6c0,0.4,0.1,0.8,0.3,1S89.2,56.6,89.6,56.6z
	 M94.4,57.9h-1.8v-8.6h1.8V57.9z M92.5,47.1c0-0.3,0.1-0.6,0.3-0.8c0.2-0.2,0.4-0.3,0.8-0.3c0.3,0,0.6,0.1,0.8,0.3
	c0.2,0.2,0.3,0.4,0.3,0.8c0,0.3-0.1,0.6-0.3,0.7c-0.2,0.2-0.4,0.3-0.8,0.3c-0.3,0-0.6-0.1-0.8-0.3C92.6,47.6,92.5,47.4,92.5,47.1z
	 M104.6,57.9h-1.8v-5.3c0-0.7-0.1-1.2-0.4-1.5c-0.3-0.3-0.7-0.5-1.3-0.5c-0.8,0-1.3,0.2-1.7,0.7c-0.4,0.5-0.5,1.2-0.5,2.3v4.3h-1.8
	v-8.6h1.4l0.3,1.1h0.1c0.3-0.4,0.6-0.7,1.1-0.9c0.5-0.2,1-0.3,1.6-0.3c2.1,0,3.1,1,3.1,3.1V57.9z M114.4,49.3v1l-1.5,0.3
	c0.1,0.2,0.2,0.4,0.3,0.7s0.1,0.5,0.1,0.8c0,0.9-0.3,1.6-0.9,2.1S111,55,110,55c-0.3,0-0.5,0-0.7-0.1c-0.4,0.2-0.6,0.5-0.6,0.9
	c0,0.2,0.1,0.3,0.3,0.4c0.2,0.1,0.5,0.1,1,0.1h1.5c0.9,0,1.7,0.2,2.2,0.6s0.7,1,0.7,1.7c0,1-0.4,1.7-1.2,2.3c-0.8,0.5-2,0.8-3.5,0.8
	c-1.2,0-2.1-0.2-2.7-0.6c-0.6-0.4-0.9-1-0.9-1.8c0-0.5,0.2-1,0.5-1.3c0.3-0.4,0.8-0.6,1.4-0.8c-0.2-0.1-0.4-0.3-0.6-0.5
	c-0.2-0.2-0.2-0.5-0.2-0.7c0-0.3,0.1-0.6,0.3-0.8c0.2-0.2,0.5-0.4,0.8-0.7c-0.4-0.2-0.8-0.5-1.1-0.9s-0.4-0.9-0.4-1.5
	c0-0.9,0.3-1.7,0.9-2.2c0.6-0.5,1.4-0.8,2.5-0.8c0.2,0,0.5,0,0.8,0.1c0.3,0,0.5,0.1,0.6,0.1H114.4z M107.7,59.3
	c0,0.4,0.2,0.7,0.5,0.9c0.4,0.2,0.9,0.3,1.5,0.3c1,0,1.7-0.1,2.2-0.4c0.5-0.3,0.7-0.7,0.7-1.1c0-0.4-0.1-0.6-0.4-0.8
	c-0.3-0.2-0.8-0.2-1.5-0.2h-1.4c-0.5,0-0.9,0.1-1.2,0.4S107.7,58.9,107.7,59.3z M108.5,52.1c0,0.5,0.1,1,0.4,1.2
	c0.3,0.3,0.7,0.4,1.2,0.4c1.1,0,1.6-0.6,1.6-1.7c0-0.6-0.1-1-0.4-1.3s-0.7-0.5-1.2-0.5c-0.5,0-0.9,0.2-1.2,0.5
	C108.6,51.1,108.5,51.6,108.5,52.1z M125.5,57.9l-0.4-1.2h-0.1c-0.4,0.5-0.8,0.9-1.3,1.1c-0.4,0.2-1,0.3-1.6,0.3
	c-0.8,0-1.5-0.2-2-0.7c-0.5-0.5-0.7-1.1-0.7-1.9c0-0.9,0.3-1.6,1-2s1.7-0.7,3-0.7l1.5,0v-0.5c0-0.5-0.1-1-0.4-1.2
	c-0.3-0.3-0.7-0.4-1.2-0.4c-0.4,0-0.9,0.1-1.3,0.2c-0.4,0.1-0.8,0.3-1.2,0.5l-0.6-1.3c0.5-0.2,1-0.4,1.5-0.6
	c0.6-0.1,1.1-0.2,1.6-0.2c1.1,0,1.9,0.2,2.5,0.7c0.6,0.5,0.8,1.2,0.8,2.2v5.8H125.5z M122.8,56.7c0.7,0,1.2-0.2,1.6-0.6
	c0.4-0.4,0.6-0.9,0.6-1.6v-0.7l-1.1,0c-0.9,0-1.5,0.2-1.9,0.4c-0.4,0.3-0.6,0.6-0.6,1.2c0,0.4,0.1,0.7,0.3,0.9
	C122,56.6,122.4,56.7,122.8,56.7z M137,57.9h-1.8v-5.3c0-0.7-0.1-1.2-0.4-1.5c-0.3-0.3-0.7-0.5-1.3-0.5c-0.8,0-1.3,0.2-1.7,0.7
	c-0.4,0.5-0.5,1.2-0.5,2.3v4.3h-1.8v-8.6h1.4l0.3,1.1h0.1c0.3-0.4,0.6-0.7,1.1-0.9c0.5-0.2,1-0.3,1.6-0.3c2.1,0,3.1,1,3.1,3.1V57.9z
	 M142.4,58.1c-1.1,0-1.9-0.4-2.5-1.2c-0.6-0.8-0.9-1.9-0.9-3.3c0-1.4,0.3-2.5,0.9-3.3c0.6-0.8,1.5-1.2,2.5-1.2c1.1,0,2,0.4,2.6,1.3
	h0.1c-0.1-0.6-0.1-1.1-0.1-1.5v-3.1h1.8v12.1h-1.4l-0.3-1.1H145C144.4,57.7,143.5,58.1,142.4,58.1z M142.9,56.6
	c0.8,0,1.3-0.2,1.6-0.6c0.3-0.4,0.5-1.1,0.5-2.1v-0.3c0-1.1-0.2-1.9-0.5-2.3c-0.4-0.5-0.9-0.7-1.7-0.7c-0.6,0-1.1,0.3-1.5,0.8
	s-0.5,1.3-0.5,2.2c0,1,0.2,1.7,0.5,2.2S142.2,56.6,142.9,56.6z M160.2,49.2c0,0.7-0.2,1.3-0.6,1.8s-1,0.8-1.8,1V52
	c0.9,0.1,1.6,0.4,2.1,0.9s0.7,1.1,0.7,1.8c0,1.1-0.4,1.9-1.2,2.5c-0.8,0.6-1.9,0.9-3.3,0.9c-1.3,0-2.3-0.2-3.2-0.6v-1.6
	c0.5,0.2,1,0.4,1.5,0.6c0.5,0.1,1.1,0.2,1.6,0.2c0.9,0,1.5-0.2,2-0.5c0.4-0.3,0.7-0.8,0.7-1.5c0-0.6-0.2-1.1-0.7-1.3
	c-0.5-0.3-1.2-0.4-2.3-0.4h-1v-1.5h1c1.8,0,2.7-0.6,2.7-1.9c0-0.5-0.2-0.9-0.5-1.1s-0.8-0.4-1.4-0.4c-0.4,0-0.8,0.1-1.2,0.2
	s-0.9,0.4-1.4,0.7l-0.9-1.3c1-0.8,2.3-1.2,3.6-1.2c1.1,0,2,0.2,2.7,0.7C159.9,47.6,160.2,48.3,160.2,49.2z M165.9,50.8
	c1.1,0,2.1,0.3,2.7,0.9c0.7,0.6,1,1.4,1,2.5c0,1.2-0.4,2.2-1.1,2.8c-0.8,0.7-1.8,1-3.2,1c-1.3,0-2.3-0.2-3-0.6v-1.7
	c0.4,0.2,0.9,0.4,1.4,0.6c0.5,0.1,1,0.2,1.5,0.2c0.8,0,1.5-0.2,1.9-0.6c0.4-0.4,0.6-0.9,0.6-1.6c0-1.4-0.9-2-2.6-2
	c-0.2,0-0.5,0-0.9,0.1s-0.7,0.1-0.9,0.2l-0.8-0.5l0.4-5.6h5.9v1.6h-4.3l-0.3,2.8c0.2,0,0.4-0.1,0.7-0.1
	C165.2,50.9,165.5,50.8,165.9,50.8z M183,52.3c0,2-0.3,3.4-1,4.4c-0.6,1-1.6,1.4-2.9,1.4c-1.3,0-2.2-0.5-2.9-1.5c-0.7-1-1-2.4-1-4.4
	c0-2,0.3-3.5,1-4.4c0.6-1,1.6-1.4,2.9-1.4c1.3,0,2.2,0.5,2.9,1.5C182.7,48.9,183,50.3,183,52.3z M177.1,52.3c0,1.6,0.2,2.7,0.5,3.3
	c0.3,0.7,0.8,1,1.5,1s1.2-0.3,1.5-1c0.3-0.7,0.5-1.8,0.5-3.3c0-1.5-0.2-2.6-0.5-3.3c-0.3-0.7-0.8-1-1.5-1s-1.2,0.3-1.5,1
	C177.3,49.6,177.1,50.7,177.1,52.3z M192.1,52.3c0,2-0.3,3.4-1,4.4c-0.6,1-1.6,1.4-2.9,1.4c-1.3,0-2.2-0.5-2.9-1.5
	c-0.7-1-1-2.4-1-4.4c0-2,0.3-3.5,1-4.4c0.6-1,1.6-1.4,2.9-1.4c1.3,0,2.2,0.5,2.9,1.5C191.8,48.9,192.1,50.3,192.1,52.3z M186.2,52.3
	c0,1.6,0.2,2.7,0.5,3.3c0.3,0.7,0.8,1,1.5,1c0.7,0,1.2-0.3,1.5-1c0.3-0.7,0.5-1.8,0.5-3.3c0-1.5-0.2-2.6-0.5-3.3
	c-0.3-0.7-0.8-1-1.5-1c-0.7,0-1.2,0.3-1.5,1C186.4,49.6,186.2,50.7,186.2,52.3z M201.2,52.3c0,2-0.3,3.4-1,4.4
	c-0.6,1-1.6,1.4-2.9,1.4c-1.3,0-2.2-0.5-2.9-1.5c-0.7-1-1-2.4-1-4.4c0-2,0.3-3.5,1-4.4c0.6-1,1.6-1.4,2.9-1.4c1.3,0,2.2,0.5,2.9,1.5
	C200.8,48.9,201.2,50.3,201.2,52.3z M195.3,52.3c0,1.6,0.2,2.7,0.5,3.3c0.3,0.7,0.8,1,1.5,1s1.2-0.3,1.5-1c0.3-0.7,0.5-1.8,0.5-3.3
	c0-1.5-0.2-2.6-0.5-3.3c-0.3-0.7-0.8-1-1.5-1s-1.2,0.3-1.5,1C195.5,49.6,195.3,50.7,195.3,52.3z M18,71.1c0.4,0,0.7,0,0.9,0.1
	l-0.2,1.7c-0.3-0.1-0.5-0.1-0.8-0.1c-0.7,0-1.3,0.2-1.8,0.7s-0.7,1.1-0.7,1.9v4.5h-1.8v-8.6h1.4l0.2,1.5h0.1
	c0.3-0.5,0.7-0.9,1.1-1.2C17,71.2,17.5,71.1,18,71.1z M24.3,80c-1.3,0-2.4-0.4-3.1-1.2C20.4,78,20,77,20,75.6c0-1.4,0.3-2.5,1-3.3
	c0.7-0.8,1.7-1.2,2.9-1.2c1.1,0,2,0.3,2.7,1c0.7,0.7,1,1.6,1,2.8v1h-5.7c0,0.8,0.3,1.5,0.7,1.9s1,0.7,1.8,0.7c0.5,0,1,0,1.4-0.1
	c0.4-0.1,0.9-0.3,1.4-0.5v1.5c-0.4,0.2-0.9,0.4-1.4,0.5C25.4,80,24.9,80,24.3,80z M24,72.5c-0.6,0-1,0.2-1.4,0.6
	c-0.3,0.4-0.6,0.9-0.6,1.6h3.9c0-0.7-0.2-1.2-0.5-1.6S24.6,72.5,24,72.5z M31.7,79.8l-3.3-8.6h1.9l1.7,5c0.3,0.8,0.5,1.5,0.5,2h0.1
	c0-0.4,0.2-1.1,0.5-2l1.7-5h1.9l-3.3,8.6H31.7z M40.1,79.8h-1.8v-8.6h1.8V79.8z M38.1,69c0-0.3,0.1-0.6,0.3-0.8
	c0.2-0.2,0.4-0.3,0.8-0.3c0.3,0,0.6,0.1,0.8,0.3c0.2,0.2,0.3,0.4,0.3,0.8c0,0.3-0.1,0.6-0.3,0.7c-0.2,0.2-0.4,0.3-0.8,0.3
	c-0.3,0-0.6-0.1-0.8-0.3C38.2,69.5,38.1,69.3,38.1,69z M46.4,80c-1.3,0-2.4-0.4-3.1-1.2s-1.1-1.9-1.1-3.2c0-1.4,0.3-2.5,1-3.3
	s1.7-1.2,2.9-1.2c1.1,0,2,0.3,2.7,1c0.7,0.7,1,1.6,1,2.8v1h-5.7c0,0.8,0.3,1.5,0.7,1.9s1,0.7,1.8,0.7c0.5,0,1,0,1.4-0.1
	c0.4-0.1,0.9-0.3,1.4-0.5v1.5c-0.4,0.2-0.9,0.4-1.4,0.5C47.6,80,47,80,46.4,80z M46.1,72.5c-0.6,0-1,0.2-1.4,0.6
	c-0.3,0.4-0.6,0.9-0.6,1.6H48c0-0.7-0.2-1.2-0.5-1.6S46.7,72.5,46.1,72.5z M58.9,79.8l-1.1-4c-0.1-0.4-0.4-1.4-0.7-3H57
	c-0.3,1.4-0.5,2.4-0.7,3l-1.1,4h-2l-2.4-8.6h1.9l1.1,4.2c0.2,1,0.4,1.9,0.5,2.7h0c0.1-0.4,0.1-0.8,0.2-1.3c0.1-0.5,0.2-0.9,0.3-1.1
	l1.3-4.5h2l1.3,4.5c0.1,0.3,0.2,0.6,0.3,1.2s0.2,0.9,0.2,1.2h0.1c0.1-0.6,0.3-1.5,0.5-2.7l1.1-4.2h1.8L61,79.8H58.9z M70.7,77.4
	c0,0.8-0.3,1.5-0.9,1.9S68.3,80,67.1,80c-1.1,0-2.1-0.2-2.8-0.5v-1.6c1,0.5,2,0.7,2.8,0.7c1.1,0,1.7-0.3,1.7-1
	c0-0.2-0.1-0.4-0.2-0.5c-0.1-0.1-0.3-0.3-0.6-0.5s-0.7-0.3-1.2-0.5c-1-0.4-1.7-0.8-2-1.2s-0.5-0.9-0.5-1.5c0-0.7,0.3-1.3,0.9-1.7
	s1.4-0.6,2.4-0.6c1,0,2,0.2,2.9,0.6l-0.6,1.4c-0.9-0.4-1.7-0.6-2.3-0.6c-1,0-1.4,0.3-1.4,0.8c0,0.3,0.1,0.5,0.4,0.7
	c0.3,0.2,0.8,0.4,1.6,0.8c0.7,0.3,1.2,0.5,1.5,0.8c0.3,0.2,0.6,0.5,0.7,0.8C70.6,76.6,70.7,77,70.7,77.4z M81.1,72.6H79v7.2h-1.8
	v-7.2h-1.4v-0.9l1.4-0.6v-0.6c0-1,0.2-1.8,0.7-2.3c0.5-0.5,1.2-0.7,2.2-0.7c0.6,0,1.3,0.1,1.9,0.3l-0.5,1.4
	c-0.5-0.1-0.9-0.2-1.3-0.2c-0.4,0-0.7,0.1-0.9,0.4c-0.2,0.3-0.3,0.6-0.3,1.2v0.6h2.1V72.6z M86.9,71.1c0.4,0,0.7,0,0.9,0.1l-0.2,1.7
	c-0.3-0.1-0.5-0.1-0.8-0.1c-0.7,0-1.3,0.2-1.8,0.7s-0.7,1.1-0.7,1.9v4.5h-1.8v-8.6H84l0.2,1.5h0.1c0.3-0.5,0.7-0.9,1.1-1.2
	C85.9,71.2,86.4,71.1,86.9,71.1z M97,75.5c0,1.4-0.4,2.5-1.1,3.3c-0.7,0.8-1.7,1.2-3,1.2c-0.8,0-1.5-0.2-2.1-0.5
	c-0.6-0.4-1.1-0.9-1.4-1.6c-0.3-0.7-0.5-1.5-0.5-2.4c0-1.4,0.4-2.5,1.1-3.3c0.7-0.8,1.7-1.2,3-1.2c1.2,0,2.2,0.4,3,1.2
	C96.7,73.1,97,74.2,97,75.5z M90.8,75.5c0,2,0.7,3,2.2,3c1.5,0,2.2-1,2.2-3c0-2-0.7-2.9-2.2-2.9c-0.8,0-1.3,0.3-1.7,0.8
	C91,73.9,90.8,74.6,90.8,75.5z M106.4,79.8h-1.8v-5.3c0-0.7-0.1-1.1-0.4-1.5s-0.6-0.5-1.2-0.5c-0.7,0-1.2,0.2-1.6,0.7
	s-0.5,1.2-0.5,2.3v4.3h-1.8v-8.6h1.4l0.3,1.1h0.1c0.2-0.4,0.6-0.7,1-0.9c0.5-0.2,1-0.3,1.5-0.3c1.3,0,2.2,0.5,2.6,1.4h0.1
	c0.3-0.4,0.6-0.8,1.1-1c0.5-0.2,1-0.4,1.6-0.4c1,0,1.8,0.3,2.2,0.8c0.5,0.5,0.7,1.3,0.7,2.4v5.6H110v-5.3c0-0.7-0.1-1.1-0.4-1.5
	s-0.6-0.5-1.2-0.5c-0.7,0-1.2,0.2-1.6,0.7c-0.3,0.4-0.5,1.1-0.5,2V79.8z M126.1,75.5c0,1.4-0.4,2.5-1.1,3.3c-0.7,0.8-1.7,1.2-3,1.2
	c-0.8,0-1.5-0.2-2.1-0.5c-0.6-0.4-1.1-0.9-1.4-1.6c-0.3-0.7-0.5-1.5-0.5-2.4c0-1.4,0.4-2.5,1.1-3.3c0.7-0.8,1.7-1.2,3-1.2
	c1.2,0,2.2,0.4,3,1.2C125.8,73.1,126.1,74.2,126.1,75.5z M119.9,75.5c0,2,0.7,3,2.2,3c1.5,0,2.2-1,2.2-3c0-2-0.7-2.9-2.2-2.9
	c-0.8,0-1.3,0.3-1.7,0.8C120,73.9,119.9,74.6,119.9,75.5z M134.3,79.8l-0.3-1.1H134c-0.3,0.4-0.6,0.7-1.1,0.9s-1,0.3-1.6,0.3
	c-1,0-1.8-0.3-2.3-0.8s-0.8-1.3-0.8-2.4v-5.6h1.8v5.3c0,0.7,0.1,1.2,0.4,1.5s0.7,0.5,1.3,0.5c0.8,0,1.3-0.2,1.7-0.7s0.5-1.2,0.5-2.3
	v-4.3h1.8v8.6H134.3z M142.7,71.1c0.4,0,0.7,0,0.9,0.1l-0.2,1.7c-0.3-0.1-0.5-0.1-0.8-0.1c-0.7,0-1.3,0.2-1.8,0.7s-0.7,1.1-0.7,1.9
	v4.5h-1.8v-8.6h1.4l0.2,1.5h0.1c0.3-0.5,0.7-0.9,1.1-1.2C141.7,71.2,142.2,71.1,142.7,71.1z M155.4,79.8l-0.3-1.1h-0.1
	c-0.3,0.4-0.6,0.7-1.1,0.9c-0.5,0.2-1,0.3-1.6,0.3c-1,0-1.8-0.3-2.3-0.8s-0.8-1.3-0.8-2.4v-5.6h1.8v5.3c0,0.7,0.1,1.2,0.4,1.5
	s0.7,0.5,1.3,0.5c0.8,0,1.3-0.2,1.7-0.7s0.5-1.2,0.5-2.3v-4.3h1.8v8.6H155.4z M165.2,77.4c0,0.8-0.3,1.5-0.9,1.9s-1.5,0.7-2.6,0.7
	c-1.1,0-2.1-0.2-2.8-0.5v-1.6c1,0.5,2,0.7,2.8,0.7c1.1,0,1.7-0.3,1.7-1c0-0.2-0.1-0.4-0.2-0.5c-0.1-0.1-0.3-0.3-0.6-0.5
	c-0.3-0.2-0.7-0.3-1.2-0.5c-1-0.4-1.7-0.8-2-1.2s-0.5-0.9-0.5-1.5c0-0.7,0.3-1.3,0.9-1.7s1.4-0.6,2.4-0.6c1,0,2,0.2,2.9,0.6
	l-0.6,1.4c-0.9-0.4-1.7-0.6-2.3-0.6c-1,0-1.4,0.3-1.4,0.8c0,0.3,0.1,0.5,0.4,0.7c0.3,0.2,0.8,0.4,1.6,0.8c0.7,0.3,1.2,0.5,1.5,0.8
	c0.3,0.2,0.6,0.5,0.7,0.8C165.2,76.6,165.2,77,165.2,77.4z M171,80c-1.3,0-2.4-0.4-3.1-1.2c-0.8-0.8-1.1-1.9-1.1-3.2
	c0-1.4,0.3-2.5,1-3.3s1.7-1.2,2.9-1.2c1.1,0,2,0.3,2.7,1c0.7,0.7,1,1.6,1,2.8v1h-5.7c0,0.8,0.3,1.5,0.7,1.9c0.4,0.4,1,0.7,1.8,0.7
	c0.5,0,1,0,1.4-0.1c0.4-0.1,0.9-0.3,1.4-0.5v1.5c-0.4,0.2-0.9,0.4-1.4,0.5S171.6,80,171,80z M170.6,72.5c-0.6,0-1,0.2-1.4,0.6
	c-0.3,0.4-0.6,0.9-0.6,1.6h3.9c0-0.7-0.2-1.2-0.5-1.6C171.7,72.7,171.2,72.5,170.6,72.5z M180.8,71.1c0.4,0,0.7,0,0.9,0.1l-0.2,1.7
	c-0.3-0.1-0.5-0.1-0.8-0.1c-0.7,0-1.3,0.2-1.8,0.7s-0.7,1.1-0.7,1.9v4.5h-1.8v-8.6h1.4l0.2,1.5h0.1c0.3-0.5,0.7-0.9,1.1-1.2
	C179.7,71.2,180.2,71.1,180.8,71.1z M189,77.4c0,0.8-0.3,1.5-0.9,1.9c-0.6,0.4-1.5,0.7-2.6,0.7c-1.1,0-2.1-0.2-2.8-0.5v-1.6
	c1,0.5,2,0.7,2.8,0.7c1.1,0,1.7-0.3,1.7-1c0-0.2-0.1-0.4-0.2-0.5s-0.3-0.3-0.6-0.5c-0.3-0.2-0.7-0.3-1.2-0.5c-1-0.4-1.7-0.8-2-1.2
	s-0.5-0.9-0.5-1.5c0-0.7,0.3-1.3,0.9-1.7s1.4-0.6,2.4-0.6c1,0,2,0.2,2.9,0.6l-0.6,1.4c-0.9-0.4-1.7-0.6-2.3-0.6
	c-1,0-1.4,0.3-1.4,0.8c0,0.3,0.1,0.5,0.4,0.7c0.3,0.2,0.8,0.4,1.6,0.8c0.7,0.3,1.2,0.5,1.5,0.8c0.3,0.2,0.6,0.5,0.7,0.8
	C189,76.6,189,77,189,77.4z"/>
</svg>
