<?xml version="1.0" standalone="no"?>
<!DOCTYPE svg PUBLIC "-//W3C//DTD SVG 1.1//EN" "http://www.w3.org/Graphics/SVG/1.1/DTD/svg11.dtd" >
<svg xmlns="http://www.w3.org/2000/svg">
<metadata>Generated by IcoMoon</metadata>
<defs>
<font id="spendee" horiz-adv-x="1024">
<font-face units-per-em="1024" ascent="960" descent="-64" />
<missing-glyph horiz-adv-x="1024" />
<glyph unicode="&#x20;" horiz-adv-x="512" d="" />
<glyph unicode="&#xe900;" glyph-name="victory" horiz-adv-x="626" d="M546.133 618.667c-12.527 0-24.098-3.584-34.133-9.557v-178.176c0-9.421-7.646-17.067-17.067-17.067s-17.067 7.646-17.067 17.067v203.742c-14.302 11.059-31.744 18.125-51.2 18.125-7.031 0-13.79-1.092-20.309-2.731l36.011 197.837c0.922 4.915 1.365 9.933 1.365 14.916v19.695c0 42.701-32.222 77.483-71.817 77.483-33.212 0-61.918-24.269-69.734-58.812l-78.711-323.174-62.225 310.921c-7.509 41.199-41.062 71.066-79.872 71.066-44.885 0-81.374-39.492-81.374-88.030v-8.090c0-5.666 0.512-11.366 1.57-17.271l75.913-378.197 44.919 37.888c63.044 46.49 147.797 57.651 216.747 29.082l35.601-14.711c41.916-17.34 68.983-59.255 68.983-106.803 0-68.096-44.032-119.467-102.4-119.467h-17.067c-19.012 0-39.253-11.674-60.177-34.748-1.331-1.468-2.697-2.799-4.13-4.062l-38.434-33.758c-3.209-2.867-7.27-4.267-11.264-4.267-4.745 0-9.455 1.98-12.8 5.803-6.212 7.066-5.53 17.852 1.536 24.098l38.434 33.758c29.013 31.846 57.754 47.309 86.835 47.309h17.067c38.912 0 68.267 36.693 68.267 85.333 0 33.69-18.807 63.249-47.923 75.264l-35.567 14.711c-58.197 24.064-129.843 14.507-182.579-24.337l-54.272-45.705-4.028-4.028v-0.068l-29.764-29.833c-36.284-40.141-55.467-94.276-55.467-156.672 0-169.37 137.83-307.2 307.2-307.2 163.635 0 307.2 151.518 307.2 324.267v290.133c0 37.649-30.618 68.267-68.267 68.267z" />
<glyph unicode="&#xe901;" glyph-name="connection" d="M447.423 746.926c0 0 0 4.613 4.613 9.225 4.613 13.838 13.838 32.288 18.45 46.126 0 4.613 4.613 13.838 4.613 18.45 0 13.838 4.613 23.063 9.225 36.901 0 9.225 4.613 13.838 4.613 23.063 4.613 9.225 9.225 23.063 9.225 32.288 4.613 9.225 4.613 13.838 4.613 23.063 4.613 9.225 4.613 13.838 4.613 23.063 55.351 4.613 110.703-9.225 166.054-27.676 0-4.613 0-13.838 0-18.45 0-9.225 0-18.45 4.613-27.676 4.613-4.613 4.613-4.613 4.613-9.225 4.613-9.225 4.613-13.838 9.225-18.45l4.613-4.613c4.613-9.225 13.838-13.838 18.45-18.45-9.225-9.225-13.838-23.063-18.45-32.288 0-9.225-4.613-13.838-9.225-23.063-9.225-18.45-18.45-41.514-27.676-59.964-4.613-4.613-4.613-4.613-4.613-9.225-9.225-23.063-18.45-46.126-23.063-69.189 0-4.613-4.613-13.838-4.613-18.45-4.613-13.838-4.613-27.676-9.225-41.514h-4.613c-4.613 0-4.613 0-9.225 0-4.613-4.613-4.613-4.613-9.225-4.613-4.613-4.613-4.613-4.613-9.225-4.613s-4.613-4.613-9.225-4.613l-4.613-4.613c-4.613 0-4.613-4.613-9.225-4.613l-4.613-4.613c0-4.613-4.613-4.613-4.613-9.225l-4.613-4.613c0-4.613-4.613-4.613-4.613-9.225-4.613 0-4.613-4.613-4.613-4.613 0-4.613-4.613-9.225-4.613-13.838v-4.613c0-9.225 0-13.838 0-18.45-55.351-4.613-110.703 4.613-166.054 18.45-4.613 4.613-4.613 4.613-9.225 4.613-13.838 4.613-23.063 9.225-36.901 13.838 0 4.613 0 13.838 0 18.45 0 9.225 0 18.45-4.613 23.063v9.225c4.613 9.225 9.225 13.838 13.838 18.45s13.838 9.225 18.45 13.838c9.225 9.225 13.838 18.45 23.063 27.676 4.613 4.613 9.225 9.225 13.838 18.45 9.225 9.225 13.838 18.45 23.063 27.676 0 4.613 4.613 9.225 9.225 18.45 9.225 13.838 18.45 27.676 27.676 46.126zM73.802 502.457c-23.063-4.613-41.514-9.225-64.577-9.225-4.613 0-4.613 0-9.225 0 9.225 64.577 27.676 129.153 55.351 184.505 4.613-4.613 4.613-4.613 4.613-4.613 9.225-18.45 23.063-32.288 36.901-46.126 0-4.613 4.613-4.613 9.225-9.225 9.225-13.838 18.45-23.063 32.288-32.288 0-4.613 4.613-4.613 9.225-9.225v-9.225c-4.613-4.613-4.613-13.838-4.613-23.063 0-4.613 0-13.838 0-18.45-4.613-4.613-4.613-4.613-9.225-4.613-18.45-4.613-36.901-13.838-59.964-18.45zM193.73 571.647c18.45 23.063 55.351 23.063 73.802 0 4.613-9.225 9.225-18.45 9.225-27.676s0-13.838-4.613-23.063c-13.838-23.063-41.514-32.288-64.577-18.45-9.225 4.613-13.838 9.225-18.45 18.45s-4.613 13.838-4.613 23.063c0 9.225 4.613 18.45 9.225 27.676zM747.243 862.241c-18.45 4.613-32.288 23.063-32.288 46.126 0 9.225 0 13.838 4.613 23.063 9.225 13.838 23.063 23.063 41.514 23.063 27.676 0 46.126-18.45 46.126-46.126 0-9.225 0-13.838-4.613-23.063-9.225-13.838-18.45-23.063-36.901-23.063-4.613 0-4.613 0-9.225 0s-4.613 0-9.225 0zM119.928 668.511c-9.225 13.838-23.063 27.676-32.288 46.126l-4.613 4.613c83.027 129.153 221.405 212.18 369.009 226.018 0-4.613 0-9.225 0-13.838-4.613-9.225-4.613-13.838-4.613-23.063s-4.613-18.45-4.613-27.676c0-4.613-4.613-13.838-4.613-18.45-4.613-13.838-4.613-23.063-9.225-32.288 0-4.613-4.613-13.838-4.613-18.45-4.613-9.225-9.225-23.063-13.838-36.901 0 0-4.613-4.613-4.613-9.225-9.225-13.838-18.45-27.676-27.676-41.514 0-4.613-4.613-9.225-4.613-9.225-9.225-13.838-13.838-23.063-23.063-32.288-4.613-4.613-9.225-9.225-13.838-13.838-4.613-9.225-13.838-18.45-18.45-27.676-4.613-4.613-9.225-9.225-13.838-13.838s-13.838-4.613-18.45-9.225c-4.613 0-9.225 4.613-9.225 9.225h-4.613c-4.613 0-13.838 4.613-18.45 4.613h-4.613c-4.613 4.613-13.838 4.613-18.45 4.613s-13.838-4.613-18.45-4.613h-4.613c-4.613 0-9.225-4.613-13.838-4.613h-4.613c-4.613-4.613-9.225-9.225-18.45-9.225l-4.613 4.613c-13.838 13.838-27.676 27.676-46.126 46.126 4.613-4.613 4.613 0 0 0zM959.423 673.124c36.901-69.189 55.351-147.604 64.577-253.694 0-32.288-4.613-69.189-13.838-106.090-4.613 4.613-4.613 4.613-9.225 4.613-18.45 9.225-32.288 18.45-50.739 23.063-4.613 4.613-4.613 4.613-9.225 4.613-18.45 9.225-41.514 13.838-59.964 18.45-4.613 4.613-9.225 4.613-13.838 4.613-18.45 4.613-32.288 9.225-50.739 9.225-4.613 0-13.838 0-18.45 0-13.838 4.613-32.288 4.613-46.126 4.613-4.613 0-9.225 0-13.838 0h-4.613c-4.613 0-9.225 0-13.838 0-13.838 0-23.063 0-36.901 0-4.613 0-13.838 0-18.45 0-9.225 0-13.838 0-18.45 0 0 0 0 4.613 0 9.225 4.613 0 4.613 0 4.613 0 9.225 0 18.45 4.613 23.063 9.225 9.225 4.613 13.838 13.838 18.45 18.45 4.613 0 4.613 4.613 4.613 4.613 4.613 9.225 9.225 13.838 13.838 23.063 0 4.613 0 4.613 0 4.613 0 9.225 4.613 13.838 4.613 23.063 0 4.613 0 4.613 0 4.613s0 4.613 4.613 4.613c23.063 9.225 46.126 18.45 64.577 32.288 0 4.613 4.613 4.613 4.613 4.613 18.45 9.225 36.901 23.063 55.351 36.901 4.613 0 4.613 4.613 9.225 4.613 18.45 13.838 36.901 27.676 50.739 46.126 4.613 4.613 4.613 4.613 9.225 9.225 18.45 18.45 32.288 36.901 46.126 55.351-4.613 0 0 0 0 0zM645.766 530.133c9.225-9.225 18.45-18.45 23.063-27.676 0-4.613 0-4.613 0-9.225 0-9.225-4.613-13.838-4.613-18.45-4.613-13.838-23.063-27.676-41.514-27.676-23.063 0-41.514 13.838-46.126 32.288 0 4.613 0 9.225 0 13.838s0 13.838 4.613 18.45c4.613 9.225 13.838 18.45 27.676 23.063 4.613 0 4.613 0 4.613 0 4.613 0 13.838 0 18.45 0s9.225-4.613 13.838-4.613zM788.757 816.115c4.613 0 9.225 4.613 13.838 4.613h4.613c9.225 4.613 13.838 9.225 18.45 13.838 41.514-32.288 78.414-69.189 106.090-115.315l-4.613-4.613c-13.838-18.45-27.676-32.288-41.514-50.739l-4.613-4.613c-13.838-18.45-27.676-32.288-46.126-46.126l-4.613-4.613c-13.838-18.45-32.288-27.676-59.964-41.514-4.613 0-4.613-4.613-9.225-4.613-18.45-9.225-41.514-18.45-59.964-27.676h-4.613c-4.613 9.225-9.225 13.838-18.45 23.063l-4.613 4.613c-4.613 4.613-13.838 9.225-18.45 13.838 4.613 9.225 4.613 23.063 9.225 32.288 0 9.225 4.613 13.838 4.613 23.063 4.613 18.45 13.838 36.901 18.45 55.351 4.613 4.613 4.613 4.613 4.613 9.225 9.225 23.063 18.45 41.514 32.288 64.577 4.613 4.613 4.613 13.838 9.225 18.45 4.613 13.838 9.225 23.063 18.45 36.901 4.613 0 4.613 0 9.225 0h4.613c4.613 0 9.225 0 13.838 0s4.613 0 9.225 0zM428.973 336.403c23.063 13.838 50.739 4.613 69.189-18.45 4.613-4.613 4.613-13.838 4.613-18.45 0-13.838-4.613-23.063-13.838-32.288-13.838-13.838-32.288-18.45-46.126-13.838-9.225 4.613-23.063 9.225-27.676 18.45s-9.225 18.45-9.225 27.676c0 9.225 4.613 18.45 9.225 27.676 4.613 4.613 9.225 4.613 13.838 9.225zM290.595 198.025c0 0 0-4.613 0 0-9.225-18.45-23.063-32.288-23.063-36.901-4.613-4.613-4.613-9.225-9.225-13.838-4.613-9.225-9.225-13.838-13.838-23.063-4.613 0-4.613 0-9.225 0s-4.613 0-9.225 0-9.225 0-13.838 0h-4.613c-13.838-4.613-27.676-9.225-41.514-18.45l-4.613-4.613c0-4.613-4.613-4.613-4.613-4.613-92.252 96.865-142.991 216.793-142.991 350.559 0 4.613 0 4.613 0 4.613 9.225 4.613 18.45 4.613 27.676 4.613 9.225 4.613 13.838 4.613 18.45 4.613 9.225 0 23.063 0 32.288 4.613 4.613 0 13.838 4.613 18.45 4.613 9.225 4.613 18.45 4.613 27.676 9.225 4.613 0 13.838 0 18.45 4.613 4.613 0 13.838 0 18.45 4.613l4.613-4.613c4.613-4.613 4.613-9.225 9.225-9.225 13.838-13.838 32.288-18.45 50.739-18.45s36.901 9.225 50.739 18.45c4.613 0 4.613 0 9.225 4.613l4.613 4.613c9.225 0 13.838-4.613 18.45-4.613 9.225 0 23.063-4.613 32.288-9.225s18.45-4.613 27.676-9.225c9.225 0 18.45-4.613 27.676-4.613 13.838 0 23.063-4.613 32.288-4.613 9.225-4.613 18.45-4.613 27.676-4.613 13.838 0 23.063 0 32.288 0 4.613 0 9.225 0 13.838 0 9.225 0 13.838 0 23.063 0 4.613 0 9.225 0 13.838 0l9.225-9.225c4.613-9.225 13.838-13.838 18.45-18.45 0-4.613 4.613-4.613 4.613-4.613 4.613-4.613 9.225-9.225 13.838-9.225 4.613-4.613 4.613-4.613 9.225-4.613s4.613 0 4.613 0c0-4.613 0-13.838 0-18.45-13.838-4.613-23.063-4.613-36.901-9.225-4.613 0-4.613 0-4.613 0-13.838-4.613-27.676-9.225-41.514-13.838-4.613 0-4.613 4.613-9.225 4.613-4.613 4.613-4.613 9.225-9.225 9.225-18.45 13.838-36.901 18.45-55.351 18.45-27.676 0-55.351-13.838-73.802-36.901-13.838-18.45-18.45-36.901-18.45-55.351 0-9.225 4.613-13.838 4.613-23.063v-4.613c0-4.613 0-4.613 0-4.613-9.225-4.613-13.838-13.838-23.063-18.45-4.613 0-9.225-4.613-13.838-9.225-13.838-13.838-27.676-27.676-41.514-41.514zM802.595 22.746c4.613-4.613 13.838-4.613 9.225-4.613 9.225-9.225 13.838-18.45 13.838-32.288 0-27.676-18.45-46.126-46.126-46.126-18.45 0-36.901 13.838-41.514 32.288-4.613 4.613-4.613 9.225-4.613 13.838 0 0 0 4.613 0 9.225 4.613 13.838 9.225 23.063 18.45 27.676 4.613 0 9.225 4.613 13.838 4.613s4.613 0 4.613 0c4.613 0 9.225 0 13.838 0s4.613 0 9.225 0c4.613-4.613 4.613-4.613 9.225-4.613zM959.423 304.115c4.613-4.613 9.225-4.613 13.838-4.613 4.613-4.613 9.225-4.613 13.838-9.225-27.676-87.64-78.414-170.667-152.216-230.631 0 4.613-4.613 4.613-4.613 4.613-4.613 0-9.225 4.613-13.838 4.613s-9.225 4.613-18.45 4.613h-4.613c-4.613 0-4.613 0-9.225 0-9.225 0-23.063 0-27.676-9.225-9.225 9.225-13.838 23.063-23.063 36.901-4.613 9.225-9.225 13.838-13.838 23.063-13.838 23.063-23.063 50.739-32.288 73.802 0 4.613 0 4.613 0 4.613-9.225 23.063-18.45 50.739-23.063 73.802 0 9.225-4.613 18.45-4.613 27.676 0 13.838-4.613 27.676-4.613 41.514 4.613 0 9.225 0 13.838 0s13.838 0 18.45 0c9.225 0 18.45 0 27.676 0s13.838 0 18.45 0 23.063 0 32.288 0c4.613 0 9.225 0 13.838 0 13.838 0 27.676-4.613 41.514-4.613 4.613 0 4.613 0 4.613 0 18.45-4.613 32.288-4.613 46.126-9.225 4.613 0 9.225-4.613 13.838-4.613 13.838-4.613 23.063-4.613 32.288-9.225 9.225 0 13.838-4.613 18.45-4.613 4.613-4.613 13.838-4.613 23.063-9.225zM230.631 68.872c13.838-9.225 23.063-23.063 23.063-36.901 0-9.225-4.613-23.063-13.838-32.288s-18.45-13.838-32.288-13.838c-27.676 0-46.126 18.45-46.126 46.126 0 4.613 0 13.838 4.613 18.45 0 4.613 4.613 9.225 9.225 13.838 4.613 0 4.613 0 4.613 0 4.613 4.613 9.225 9.225 13.838 9.225s13.838 0 18.45 0c4.613 0 13.838-4.613 18.45-4.613zM678.054 105.773c9.225-18.45 23.063-36.901 27.676-59.964 4.613 0 4.613-4.613 4.613-4.613-4.613-9.225-4.613-13.838-9.225-18.45-4.613 0-4.613-4.613-4.613-4.613 0-4.613-4.613-9.225-4.613-13.838v-4.613c-4.613-4.613-4.613-13.838-4.613-18.45 0 0 0-4.613 0-9.225-4.613 0-9.225-4.613-13.838-4.613-129.153-46.126-267.532-41.514-387.459 18.45 0 4.613 0 4.613 0 4.613 0 4.613 4.613 9.225 4.613 13.838v4.613c4.613 4.613 4.613 9.225 4.613 18.45s-4.613 13.838-4.613 23.063v4.613c0 4.613 0 9.225-4.613 13.838-4.613 0-4.613 4.613-4.613 4.613-4.613 4.613-9.225 9.225-13.838 13.838 4.613 4.613 9.225 13.838 13.838 18.45s4.613 9.225 9.225 13.838c9.225 13.838 23.063 23.063 32.288 36.901 4.613 4.613 4.613 4.613 4.613 4.613 9.225 9.225 18.45 23.063 32.288 32.288 4.613 0 9.225 4.613 13.838 9.225s13.838 9.225 18.45 13.838c4.613-4.613 9.225-4.613 13.838-9.225 4.613 0 9.225-4.613 13.838-4.613s4.613 0 4.613 0c9.225-4.613 18.45-4.613 27.676-4.613 23.063 0 46.126 9.225 64.577 27.676l4.613 4.613c13.838 18.45 23.063 41.514 23.063 64.577 0 4.613 0 9.225 0 13.838 4.613 0 9.225 4.613 13.838 4.613 13.838 4.613 23.063 9.225 36.901 13.838 4.613 4.613 9.225 4.613 13.838 4.613v-4.613c4.613-18.45 9.225-41.514 13.838-64.577 4.613 0 4.613-4.613 4.613-9.225 4.613-23.063 9.225-46.126 18.45-69.189v-4.613c9.225-23.063 18.45-41.514 27.676-64.577 0-4.613 4.613-4.613 4.613-9.225z" />
<glyph unicode="&#xe902;" glyph-name="storage" d="M85.333 234.667h490.667c11.776 0 21.333 9.557 21.333 21.333v85.333c0 29.397 19.925 54.955 48.469 62.123l170.667 42.667c5.12 1.28 10.325 1.92 15.531 1.92s10.453-0.64 15.531-1.877l144.768-36.181c1.707-0.427 3.456-0.64 5.163-0.64 6.187 0 12.16 2.688 16.256 7.509 5.248 6.187 6.528 14.805 3.371 22.229-13.483 31.36-44.245 51.627-78.379 51.627h-853.376c-47.061 0-85.333-38.272-85.333-85.333v-85.333c0-47.104 38.272-85.376 85.333-85.376zM128 405.333c23.509 0 42.667-19.157 42.667-42.667s-19.157-42.667-42.667-42.667c-23.509 0-42.667 19.157-42.667 42.667s19.157 42.667 42.667 42.667zM138.923 832h746.155c7.765 0 14.891 4.224 18.645 10.965s3.541 15.061-0.512 21.632l-28.075 45.099c-19.584 31.488-53.461 50.304-90.581 50.304h-545.152c-37.077 0-70.955-18.816-90.581-50.304l-28.032-45.099c-4.096-6.571-4.309-14.848-0.512-21.632s10.88-10.965 18.645-10.965zM938.667 789.333h-853.333c-47.061 0-85.333-38.272-85.333-85.333v-85.333c0-47.061 38.272-85.333 85.333-85.333h853.333c47.061 0 85.333 38.272 85.333 85.333v85.333c0 47.061-38.272 85.333-85.333 85.333zM128 618.667c-23.509 0-42.667 19.157-42.667 42.667s19.157 42.667 42.667 42.667c23.509 0 42.667-19.157 42.667-42.667s-19.157-42.667-42.667-42.667zM917.333 618.667h-341.333c-11.776 0-21.333 9.557-21.333 21.333s9.557 21.333 21.333 21.333h341.333c11.776 0 21.333-9.557 21.333-21.333s-9.557-21.333-21.333-21.333zM597.333 85.333v85.333c0 11.776-9.557 21.333-21.333 21.333h-490.667c-47.061 0-85.333-38.272-85.333-85.333v-85.333c0-47.061 38.272-85.333 85.333-85.333h570.624c9.131 0 17.28 5.845 20.224 14.507s0 18.219-7.253 23.808c-47.531 36.267-71.595 73.643-71.595 111.019zM128 21.333c-23.509 0-42.667 19.157-42.667 42.667s19.157 42.667 42.667 42.667c23.509 0 42.667-19.157 42.667-42.667s-19.157-42.667-42.667-42.667zM1007.829 362.027l-170.667 42.667c-3.371 0.896-6.955 0.896-10.325 0l-170.667-42.667c-9.515-2.389-16.171-10.88-16.171-20.693v-256c0-66.005 140.672-129.749 183.808-147.669 2.645-1.109 5.419-1.664 8.192-1.664s5.589 0.555 8.192 1.664c43.093 17.963 183.808 81.707 183.808 147.669v256c0 9.771-6.656 18.304-16.171 20.693zM938.667 103.040c0-6.059-2.56-11.776-7.040-15.872-16.768-15.104-51.328-36.267-90.24-55.296-2.944-1.451-6.187-2.176-9.387-2.176-3.925 0-7.851 1.067-11.307 3.243-6.229 3.883-10.027 10.752-10.027 18.091v98.304h-64c-11.776 0-21.333 9.557-21.333 21.333v104.021c0 9.771 6.656 18.304 16.171 20.693l85.333 21.333c6.357 1.664 13.099 0.171 18.304-3.883s8.192-10.24 8.192-16.811v-104.021h64c11.776 0 21.333-9.557 21.333-21.333v-67.627z" />
<glyph unicode="&#xe903;" glyph-name="person-shield" horiz-adv-x="914" d="M880.783 831.076l-426.653 127.996c-4.011 1.237-8.234 1.237-12.245 0l-426.653-127.996c-9.045-2.731-15.232-11.008-15.232-20.437v-469.319c0-188.623 287.65-356.426 441.672-404.382 2.048-0.597 4.181-0.939 6.314-0.939s4.267 0.341 6.314 0.939c88.915 27.647 222.158 95.442 319.094 183.973 0.555 0.512 1.152 0.981 1.621 1.536 70.099 64.51 120.956 139.772 120.956 218.873v469.319c0 9.429-6.186 17.706-15.189 20.437zM853.392 341.321h-0.085c0-59.219-37.417-119.548-92.669-174.331-24.021 25.77-54.484 44.543-88.488 53.076l-117.543 29.354-8.704 34.815c31.146 31.828 52.649 74.536 59.817 118.482 18.346 6.57 32.212 22.997 34.73 43.263l7.893 63.102c1.835 14.89-2.731 29.908-12.586 41.257-4.864 5.546-10.794 9.941-17.365 13.056l2.645 53.374 10.368 10.41c19.157 20.351 35.114 55.081 2.347 105.127-24.746 37.801-66.473 56.958-124.113 56.958-22.229 0-73.214 0-121.255-31.658-138.492-3.456-156.454-71.976-156.454-131.58 0-13.525 2.987-41.983 5.248-61.523-7.338-3.072-13.994-7.765-19.327-13.824-10.026-11.392-14.72-26.538-12.842-41.599l7.893-63.059c2.688-21.674 18.346-38.953 38.527-44.457 7.125-42.153 27.519-83.325 56.745-114.471l-9.429-37.716-117.543-29.354c-23.807-5.93-46.207-16.895-65.875-31.914-43.945 48.98-72.574 101.501-72.574 153.169v453.447l405.321 121.596 405.321-121.596v-453.404z" />
<glyph unicode="&#xe904;" glyph-name="creditcard" horiz-adv-x="1136" d="M1132.784 627.704h-1129.567v102.688c0 56.712 45.974 102.688 102.688 102.688h924.192c56.712 0 102.688-45.974 102.688-102.688v-102.688zM1132.784 525.015v-359.408c0-56.712-45.974-102.688-102.688-102.688h-924.192c-56.712 0-102.688 45.974-102.688 102.688v359.408h1129.567z" />
<glyph unicode="&#xe905;" glyph-name="twiter" horiz-adv-x="1240" d="M1224.86 842.283c-45.082-19.976-93.454-33.524-144.278-39.572 51.895 31.076 91.619 80.367 110.446 138.92-48.678-28.778-102.41-49.675-159.662-61.003-45.846 48.908-111.058 79.372-183.389 79.372-138.766 0-251.279-112.513-251.279-251.203 0-19.67 2.22-38.881 6.507-57.252-208.799 10.487-393.947 110.524-517.865 262.533-21.661-37.046-33.984-80.212-33.984-126.291 0-87.179 44.393-164.102 111.749-209.105-41.179 1.377-79.908 12.705-113.814 31.534v-3.138c0-121.698 86.643-223.265 201.528-246.381-21.049-5.664-43.244-8.802-66.207-8.802-16.225 0-31.916 1.607-47.301 4.669 31.993-99.884 124.76-172.519 234.671-174.511-85.955-67.355-194.335-107.386-312.052-107.386-20.282 0-40.26 1.225-59.93 3.444 111.212-71.412 243.243-113.050 385.147-113.050 462.221 0 714.879 382.852 714.879 714.879l-0.843 32.529c49.367 35.211 92.075 79.45 125.676 129.813z" />
<glyph unicode="&#xe906;" glyph-name="linkedin" d="M1024 360.087v-378.579h-219.476v353.224c0 88.733-31.745 149.29-111.188 149.29-60.645 0-96.735-40.811-112.612-80.288-5.79-14.113-7.28-33.757-7.28-53.512v-368.714h-219.55c0 0 2.957 598.246 0 660.229h219.529v-93.585c-0.445-0.7-1.024-1.455-1.443-2.133h1.443v2.133c29.167 44.922 81.255 109.095 197.845 109.095 144.447 0.002 252.733-94.363 252.733-297.16zM124.235 960c-75.108 0-124.235-49.265-124.235-114.050 0-63.373 47.705-114.133 121.321-114.133h1.467c76.562 0 124.177 50.75 124.177 114.133-1.443 64.785-47.615 114.050-122.73 114.050zM13.039-18.492h219.467v660.229h-219.467v-660.229z" />
<glyph unicode="&#xe907;" glyph-name="facebook" d="M1024 789.322c0 89.68-80.964 170.678-170.667 170.678h-682.667c-89.702 0-170.667-80.998-170.667-170.678v-682.644c0-89.68 80.964-170.678 170.678-170.678h341.322v386.844h-125.156v170.667h125.156v66.492c0 114.677 86.107 217.953 192 217.953h137.956v-170.667h-137.956c-15.098 0-32.711-18.33-32.711-45.784v-67.994h170.667v-170.667h-170.667v-386.844h182.044c89.702 0 170.667 80.998 170.667 170.678v682.644z" />
<glyph unicode="&#xe908;" glyph-name="email" horiz-adv-x="1408" d="M1408 8.373l-459.285 415.898c-0.783 0.709-1.531 1.457-2.24 2.24-11.863 13.1-10.86 33.336 2.24 45.199l459.286 415.916v-879.254zM661.039 289.009c24.384-22.083 61.538-22.083 85.922 0l95.633 86.609 485.479-439.618h-1248.147l485.479 439.618 95.633-86.609zM1328.074 960l-602.594-545.687c-12.192-11.040-30.768-11.040-42.959 0l-602.594 545.687h1248.147zM0 887.627l459.286-415.916c0.783-0.709 1.531-1.457 2.24-2.24 11.863-13.1 10.859-33.337-2.241-45.199l-459.285-415.898v879.254z" />
<glyph unicode="&#xe909;" glyph-name="shield" horiz-adv-x="907" d="M397.64 388.684l-139.848 135.050-44.458-46.038 185.745-179.372 36.249 37.537 290.883 290.883-45.255 45.255-283.316-283.316zM0 896.283h128.775c85.978 0 181.744 63.717 321.936 63.717 141.33 0 236.237-63.717 321.936-63.717h128.775v-297.344c0-444.105-431.974-658.405-450.711-658.405-20.046 0-450.711 214.47-450.711 658.405v297.344z" />
<glyph unicode="&#xe90a;" glyph-name="star-plus" d="M554.667 490.667v120.229c0 3.937-3.526 7.771-7.875 7.771h-69.583c-4.208 0-7.875-3.479-7.875-7.771v-120.229h-120.229c-3.937 0-7.771-3.526-7.771-7.875v-69.583c0-4.208 3.479-7.875 7.771-7.875h120.229v-120.229c0-3.937 3.526-7.771 7.875-7.771h69.583c4.208 0 7.875 3.479 7.875 7.771v120.229h120.229c3.937 0 7.771 3.526 7.771 7.875v69.583c0 4.208-3.479 7.875-7.771 7.875h-120.229zM512 64l-132.515-110.554-59.485 162-170.039-29.485 29.485 170.039-162 59.485 110.554 132.515-110.554 132.515 162 59.485-29.485 170.039 170.039-29.485 59.485 162 132.515-110.554 132.515 110.554 59.485-162 170.039 29.485-29.485-170.039 162-59.485-110.554-132.515 110.554-132.515-162-59.485 29.485-170.039-170.039 29.485-59.485-162-132.515 110.554z" />
<glyph unicode="&#xe90b;" glyph-name="star-premium" d="M505.076 62.753l-135.335-112.906-60.75 165.447-173.657-30.112 30.112 173.657-165.447 60.75 112.906 135.335-112.906 135.335 165.447 60.75-30.112 173.657 173.657-30.112 60.75 165.447 135.335-112.906 135.335 112.906 60.75-165.447 173.657 30.112-30.112-173.657 165.447-60.75-112.906-135.335 112.906-135.335-165.447-60.75 30.112-173.657-173.657 30.112-60.75-165.447-135.335 112.906zM400.576 496.514c-5.757 0-74.272 62.063-108.434 93.337 12.906-11.806-20.131 24.115-15.365-7.141 9.265-60.897 32.961-216.709 40.377-265.476-0.076 0.556 10.676-14.82 19.159-14.82h336.759c9.17 0 19.75 15.251 19.75 15.251 7.53 49.539 31.36 206.248 40.472 266.158 4.499 29.587-27.852-5.132-17.176 4.593-34.791-31.686-101.666-91.901-107.652-91.901-9.932 0-88.741 110.92-103.515 110.92-13.211 0-95.966-110.92-104.373-110.92z" />
<glyph unicode="&#xe90c;" glyph-name="bell" d="M647.529 75.636c0-7.018 0-16.977 0-17.415-0.794-67.63-61.422-122.221-135.806-122.221-74.132 0-134.082 54.252-135.244 121.583-0.019 0.638 0 17.395 0 18.053h271.050zM75.335 126.275v0.005c-8.315 0-15.056 6.739-15.059 15.054l-0.041 122.79c0 0 124.005-1.139 124.005 126.502v223.682c0 193.261 149.748 345.691 330.571 345.691 183.405 0 330.571-153.1 330.571-345.691v-223.682c0-140.757 118.383-126.502 118.383-126.502l-0.041-122.79c-0.002-8.315-6.744-15.054-15.059-15.054l-873.329-0.005z" />
<glyph unicode="&#xe90d;" glyph-name="person" d="M1013.508 5.861c-0.201 0.755-5.938 22.268-17.21 64.537-13.308 46.577-46.577 83.172-93.153 99.807l-176.325 59.884c-46.577 19.961-69.865 99.807-73.192 126.422 27.042 22.937 43.231 58.34 43.249 103.8 0.009 23.288 13.308 29.276 9.981 29.276 6.654 0 13.308 5.007 13.308 8.334s19.961 58.204 19.961 91.473c0 0 0 3.327 0 3.327-3.327 9.981-9.981 23.288-19.961 29.942v113.114c0 66.538-19.961 93.812-45.239 103.22 1.015 35.571-31.28 106.374-154.375 106.374-126.422 0-209.594-126.422-209.594-212.921 0-36.596 0-69.865-3.327-89.826 0-6.654 0-16.634 0-23.288-6.654-3.327-13.308-16.634-16.634-23.288 0 0 0-3.327 0-3.327 0-33.269 16.634-86.292 19.961-89.619s9.981-10.188 13.308-10.188c0 0 9.981-3.327 9.981-26.615 0-46.577 46.577-93.153 66.538-109.788-3.327-26.615-23.288-103.134-69.865-123.095l-182.979-59.884c-46.577-16.634-82.269-53.415-95.576-99.992-9.189-33.782-15.345-56.417-18.47-67.905-0.758-2.788-2.881-15.504-6.369-38.149v0c-1.23-7.985 4.246-15.455 12.231-16.685 0.737-0.114 1.481-0.171 2.227-0.171l963.736-0.001c8.080 0 14.629 6.55 14.629 14.629 0 0.791-0.064 1.58-0.192 2.36-3.75 22.938-5.966 35.686-6.648 38.242z" />
<glyph unicode="&#xe90e;" glyph-name="currency" d="M294.921 607.478c0.328-48.695 9.835-95.211 26.877-137.902v-30.522c-61.533-5.337-100.631-44.667-100.631-94.159 0-63.105 51.494-81.058 100.631-93.701v-94.132c-34.356 5.31-62.010 23.776-79.652 43.67l-31.495-44.155c25.27-26.714 62.010-46.608 111.147-50.489v-43.696h38.144v43.696c71.546 6.308 103.491 50.004 103.491 99.496 0 65.046-53.878 83.969-103.491 97.070v83.996c3.173-0.663 6.339-1.441 9.484-2.338 68.612-92.432 178.291-152.558 302.052-153.391-20.728-166.263-162.557-294.921-334.436-294.921-186.143 0-337.042 150.899-337.042 337.042 0 171.878 128.657 313.707 294.921 334.436zM406.218 200.246c0-18.923-13.377-38.844-46.276-43.67v84.428c26.224-8.222 46.276-18.923 46.276-40.758zM278.383 349.262c0 21.35 16.688 36.418 43.415 39.815v-76.233c-25.27 7.79-43.415 17.495-43.415 36.418zM674.085 273.042c-186.143 0-337.042 150.899-337.042 337.042s150.899 337.042 337.042 337.042c186.143 0 337.042-150.899 337.042-337.042s-150.899-337.042-337.042-337.042zM703.532 441.563v59.612h119.913v34.381h-119.913v45.972h119.913v34.381h-97.127l107.747 162.697h-67.795l-92.576-144.006-92.548 144.006h-67.823l108.281-162.697h-97.633v-34.381h120.419v-45.972h-120.419v-34.381h120.419v-59.612h59.142z" />
<glyph unicode="&#xe90f;" glyph-name="wallet" d="M809.487 158.189h186.805v-62.268c0-80.118-65.174-145.292-145.292-145.292h-705.706c-80.118 0-145.292 65.174-145.292 145.292v415.121c0 80.118 65.174 145.292 145.292 145.292h705.706c80.118 0 145.292-65.174 145.292-145.292v-62.268h-186.805c-80.118 0-145.292-65.174-145.292-145.292s65.174-145.292 145.292-145.292zM145.292 697.847c-11.789 0-23.205-1.411-34.372-3.487 5.48 2.906 10.835 6.019 16.646 8.468l528.698 221.716c48.279 26.941 102.618 27.979 147.16 1.744 42.841-25.198 68.412-71.525 68.412-123.955v-106.603c-6.891 0.789-13.657 2.117-20.756 2.117h-231.472l114.2 42.841c10.752 4.027 16.19 15.982 12.122 26.734-4.027 10.71-16.107 16.148-26.734 12.122l-217.897-81.696h-356.008zM705.706 303.482c0 57.204 46.535 103.78 103.78 103.78h186.805v-207.561h-186.805c-57.245 0-103.78 46.577-103.78 103.78zM871.755 303.482c0 34.331-27.938 62.268-62.268 62.268s-62.268-27.938-62.268-62.268c0-34.331 27.938-62.268 62.268-62.268s62.268 27.938 62.268 62.268zM809.487 282.726c-11.463 0-20.756 9.293-20.756 20.756s9.293 20.756 20.756 20.756c11.463 0 20.756-9.293 20.756-20.756s-9.293-20.756-20.756-20.756z" />
<glyph unicode="&#xe910;" glyph-name="cloud" d="M825.6 545.848c110.933-7.855 198.4-101.236 198.4-216.436 0-120.436-95.573-218.182-213.333-218.182h-554.667c-141.227 0-256 117.382-256 261.818 0 134.836 99.84 246.109 228.267 260.073 53.333 104.727 160.427 176.291 283.733 176.291 155.307 0 284.587-113.018 313.6-263.564zM616.921 280.988l-81.801 61.629c-5.412 4.113-12.702 4.801-18.813 1.75s-9.98-9.227-9.98-16.069v-28.097c-77.956 6.766-137.537 69.481-149.353 136.848-0.777 4.16-0.913 8.449-0.408 12.864h0.003c0.945 8.264-4.988 15.73-13.252 16.676-0.859 0.098-1.725 0.122-2.589 0.072l-48.483-2.831c-8.301-0.484-14.638-7.606-14.154-15.907 0.019-0.322 0.048-0.643 0.087-0.963 0.482-3.911 0.931-7.214 1.347-9.91 16.988-112.355 105.047-200.317 226.802-206.287v-25.763c0-6.79 3.869-13.017 9.938-16.027 6.111-3.051 13.401-2.354 18.855 1.708l81.801 61.712c4.484 3.374 7.133 8.664 7.133 14.277 0 5.655-2.649 10.945-7.133 14.319zM402.769 575.87l81.801-61.629c5.412-4.113 12.702-4.801 18.813-1.75s9.98 9.227 9.98 16.069v28.097c77.956-6.766 137.537-69.481 149.353-136.848 0.777-4.16 0.913-8.449 0.408-12.864h-0.003c-0.945-8.264 4.988-15.73 13.252-16.676 0.859-0.098 1.725-0.122 2.589-0.072l48.483 2.831c8.301 0.484 14.638 7.606 14.154 15.907-0.019 0.322-0.048 0.643-0.087 0.963-0.482 3.911-0.931 7.214-1.347 9.91-16.988 112.355-105.047 200.317-226.802 206.287v25.763c0 6.79-3.869 13.017-9.938 16.027-6.111 3.051-13.401 2.354-18.855-1.708l-81.801-61.712c-4.484-3.374-7.133-8.664-7.133-14.277 0-5.655 2.649-10.945 7.133-14.319z" />
<glyph unicode="&#xe911;" glyph-name="bank" d="M24.035 613.79c-9.318 0-17.559 6.259-19.961 15.294-2.485 9.036 1.449 18.61 9.525 23.335l496.957 290.135c6.75 3.896 15.033 3.73 21.576-0.414l452.521-288.229c7.827-2.943 13.418-10.528 13.418-19.398 0-11.44-9.277-20.724-20.707-20.724-0.166 0-0.497-0.041-0.828 0h-952.501zM976.536 116.415c11.471 0 20.707-9.284 20.707-20.724v-124.344c0-11.44-9.277-20.724-20.707-20.724h-952.501c-11.43 0-20.707 9.284-20.707 20.724v124.344c0 11.44 9.277 20.724 20.707 20.724h952.501zM313.926 530.894h-20.707v-331.583h20.707c11.471 0 20.707-9.284 20.707-20.724s-9.277-20.724-20.707-20.724h-207.066c-11.43 0-20.707 9.284-20.707 20.724s9.277 20.724 20.707 20.724h20.707v331.583h-20.707c-11.43 0-20.707 9.284-20.707 20.724s9.277 20.724 20.707 20.724h207.066c11.471 0 20.707-9.284 20.707-20.724s-9.277-20.724-20.707-20.724zM603.818 530.894h-20.707v-331.583h20.707c11.43 0 20.707-9.284 20.707-20.724s-9.277-20.724-20.707-20.724h-207.066c-11.43 0-20.707 9.284-20.707 20.724s9.277 20.724 20.707 20.724h20.707v331.583h-20.707c-11.43 0-20.707 9.284-20.707 20.724s9.277 20.724 20.707 20.724h207.066c11.471 0 20.707-9.284 20.707-20.724s-9.277-20.724-20.707-20.724zM893.71 530.894h-20.707v-331.583h20.707c11.43 0 20.707-9.284 20.707-20.724s-9.277-20.724-20.707-20.724h-207.066c-11.43 0-20.707 9.284-20.707 20.724s9.277 20.724 20.707 20.724h20.707v331.583h-20.707c-11.43 0-20.707 9.284-20.707 20.724s9.277 20.724 20.707 20.724h207.066c11.471 0 20.707-9.284 20.707-20.724s-9.277-20.724-20.707-20.724z" />
<glyph unicode="&#xe912;" glyph-name="knife" horiz-adv-x="701" d="M289.827 927.177l31.371-247.459c9.225-72.52-24.012-141.89-80.051-170.808l26.672-442.562c1.589-26.627-6.288-53.091-21.662-72.642s-37.141-30.758-59.701-30.758h-0.138c-22.561 0-44.327 11.207-59.701 30.758s-23.252 46.015-21.662 72.642l26.672 442.562c-56.039 28.918-89.276 98.288-80.051 170.808l31.336 247.459c1.244 10.062 8.534 17.424 17.067 17.424 0.173 0 0.38 0 0.587 0 8.741-0.327 15.893-8.385 16.618-18.733l15.133-214.819c0.933-13.252 20.799-13.252 21.732 0l15.133 214.819c0.726 10.594 8.223 18.733 17.206 18.733s16.48-8.14 17.171-18.733l15.133-214.819c0.933-13.252 20.799-13.252 21.732 0l15.133 214.819c0.691 10.348 7.843 18.406 16.618 18.733 0.207 0 0.415 0 0.587 0 8.534 0 15.824-7.362 17.067-17.424zM494.429 940.87c5.039 3.845 11.529 4.745 17.37 2.577 1.642-0.614 171.927-64.825 171.927-264.428 0-143.69-50.148-216.501-74.694-245.951l24.432-26.177c3.13-3.354 5.077-7.731 5.497-12.434l20.678-333.312c0-56.107-31.243-98.197-87.468-98.197-50.506 0-85.836 33.766-85.836 87.879v873.355c0 6.667 3.016 12.843 8.093 16.688z" />
<glyph unicode="&#xe913;" glyph-name="lightening" horiz-adv-x="683" d="M290.567 9.456l18.431 324.968c-159.161 0-245.162 0-258.003 0-19.261 0-39.866-1.464-48.212 17.477s3.407 34.656 17.719 60.837c14.312 26.181 265.242 479.050 288.496 511.22s39.86 36.042 59.158 36.042c19.298 0 25.62-31.021 23.443-77.845-1.451-31.216-13.172-138.079-35.162-320.587h265.313c20.371 0 42.335 3.018 49.783-14.877s-6.306-39.185-18.048-60.211l-282.789-509.997c-14.259-25.309-29.003-40.482-55.37-40.482s-25.879 54.102-24.759 73.456z" />
<glyph unicode="&#xe914;" glyph-name="bar-chart" d="M235.093 490.667c11.819 0 21.333-9.557 21.333-21.333v-512c0-11.776-9.557-21.333-21.333-21.333h-213.333c-11.776 0-21.333 9.557-21.333 21.333v512c0 11.776 9.557 21.333 21.333 21.333h213.333zM618.24 960c11.776 0 21.333-9.557 21.333-21.333v-981.333c0-11.776-9.557-21.333-21.333-21.333h-213.333c-11.776 0-21.333 9.557-21.333 21.333v981.333c0 11.776 9.557 21.333 21.333 21.333h213.333zM1002.24 746.667c11.776 0 21.333-9.557 21.333-21.333v-768c0-11.776-9.557-21.333-21.333-21.333h-213.333c-11.776 0-21.333 9.557-21.333 21.333v768c0 11.776 9.557 21.333 21.333 21.333h213.333z" />
<glyph unicode="&#xe915;" glyph-name="airplane" horiz-adv-x="967" d="M927.495 885.271c-58.731 40.115-141.656 28.582-191.518-28.112l-96.621-108.781-451.263 50.175c-47.104 5.234-93.33-10.969-126.832-44.471l-48.828-48.828c-5.422-5.422-7.647-13.288-5.892-20.747s7.24-13.507 14.542-15.921l419.547-139.87-199.886-220.946-174.312 58.104c-11.658 3.886-24.163-2.413-28.049-14.009l-15.67-47.010c-3.165-9.496 0.376-19.869 8.681-25.417l184.341-122.915 122.915-184.341c5.547-8.305 15.952-11.878 25.448-8.712l47.010 15.67c11.627 3.855 17.864 16.422 14.009 28.049l-58.104 174.312 220.915 199.917 139.87-419.547c2.413-7.302 8.462-12.787 15.921-14.542s15.419 0.313 20.841 5.735l48.828 48.828c33.502 33.502 49.705 79.729 44.503 126.801l-50.175 451.263 108.781 96.621c2.256 2.006 3.98 6.049 6.613 6.237 50.959 50.959 59.985 128.932 21.468 185.375-2.633 3.823-5.234 6.989-7.678 9.433s-5.61 5.046-9.402 7.647zM872.211 736.156c2.758-8.211 0.376-16.924-5.39-22.69-2.35-2.35-5.265-4.2-8.65-5.328-11.627-3.855-24.163 2.413-28.049 14.009-7.616 22.847-25.824 41.055-48.671 48.671-11.627 3.855-17.864 16.422-14.009 28.049 3.886 11.596 16.422 17.926 28.049 14.009 36.010-12.003 64.685-40.679 76.72-76.72z" />
<glyph unicode="&#xe916;" glyph-name="dashboard" d="M512-64c-282.77 0-512 229.23-512 512s229.23 512 512 512c282.77 0 512-229.23 512-512s-229.23-512-512-512zM512-10.105c253.005 0 458.105 205.101 458.105 458.105s-205.101 458.105-458.105 458.105c-253.005 0-458.105-205.101-458.105-458.105s205.101-458.105 458.105-458.105zM512 43.789c-223.239 0-404.211 180.971-404.211 404.211s180.971 404.211 404.211 404.211c223.239 0 404.211-180.971 404.211-404.211s-180.971-404.211-404.211-404.211zM348.747 743.515l83.674-342.306c2.001-8.185 5.137-16.009 9.328-23.267 26.211-45.399 87.103-59.314 136.006-31.080 7.818 4.514 15.046 9.969 21.497 16.223 40.35 39.12 42.188 100.374 4.104 136.813l-254.609 243.617z" />
<glyph unicode="&#xe917;" glyph-name="pie-chart" d="M920.822 200.537l-210.634 121.61c11.663 22.253 19.98 46.536 24.282 72.18h285.406c-5.872-77.196-28.383-149.74-63.955-214.053l-35.098 20.264zM899.801 165.891c-87.103-130.938-235.996-217.227-405.040-217.227-268.486 0-486.137 217.669-486.137 486.178s217.651 486.178 486.137 486.178v-243.089c-134.243 0-243.068-108.835-243.068-243.089s108.825-243.089 243.068-243.089c79.045 0 149.277 37.734 193.67 96.173l211.37-122.035zM980.898 434.842h-243.068c0 120.45-87.597 220.44-202.557 239.728v285.43c271.931-20.688 486.137-247.906 486.137-525.158h-40.511z" />
<glyph unicode="&#xe918;" glyph-name="search" d="M687.922 344.19l336.030-336.030-72.16-72.16-336.342 336.342c-64.388-48.774-144.696-77.72-231.78-77.72-211.868 0-383.621 171.335-383.621 382.689s171.752 382.689 383.621 382.689 383.621-171.335 383.621-382.689c0-87.733-29.595-168.571-79.369-233.121zM383.669 296.673c155.37 0 281.322 125.646 281.322 280.639s-125.952 280.639-281.322 280.639c-155.37 0-281.322-125.646-281.322-280.639s125.952-280.639 281.322-280.639z" />
<glyph unicode="&#xe919;" glyph-name="instagram" d="M1024 194.314c0-142.452-115.862-258.314-258.314-258.314h-507.372c-142.433 0-258.314 115.862-258.314 258.314v507.372c0 142.433 115.881 258.314 258.314 258.314h507.372c142.452 0 258.314-115.881 258.314-258.314v-507.372zM765.686 848.557h-507.372c-80.984 0-146.871-65.887-146.871-146.871v-507.372c0-80.984 65.887-146.89 146.871-146.89h507.372c80.984 0 146.89 65.887 146.89 146.89v507.372c0 80.984-65.887 146.871-146.89 146.871zM512 184.262c-145.411 0-263.719 118.308-263.719 263.738 0 145.411 118.308 263.719 263.719 263.719 145.43 0 263.738-118.308 263.738-263.719s-118.327-263.738-263.738-263.738zM512 600.276c-83.943 0-152.295-68.314-152.295-152.257 0-83.981 68.352-152.314 152.295-152.314 83.981 0 152.276 68.333 152.276 152.314 0 83.924-68.314 152.257-152.276 152.257zM784.216 657.192c-34.423 0-62.417 27.994-62.417 62.398s27.994 62.398 62.417 62.398c34.404 0 62.398-27.994 62.398-62.398s-27.994-62.398-62.398-62.398z" />
<glyph unicode="&#xe91a;" glyph-name="facebook2" d="M729.032 448.986h-140.025v-512.987h-212.15v512.987h-100.899v180.284h100.899v116.664c0 83.427 39.629 214.066 214.038 214.066l157.147-0.657v-174.997h-114.020c-18.703 0-45.001-9.344-45.001-49.142v-106.103h158.545l-18.535-180.116z" />
<glyph unicode="&#xe91b;" glyph-name="apple" d="M793.567 415.438c-1.173 129.366 106.791 192.304 111.728 195.235-61.144 88.425-155.918 100.507-189.221 101.47-79.597 8.309-156.807-47.243-197.355-47.243-41.356 0-103.796 46.44-171.092 45.076-86.598-1.325-167.612-51.056-212.044-128.283-91.697-157.464-23.309-388.863 64.544-516.142 43.946-62.335 95.299-131.935 162.514-129.488 65.758 2.689 90.322 41.583 169.676 41.583 78.626 0 101.692-41.583 170.242-40.018 70.573 1.124 115.005 62.616 157.414 125.513 50.785 71.447 71.18 141.81 71.99 145.423-1.659 0.562-137.060 51.819-138.395 206.875zM664.074 795.873c35.367 43.871 59.566 103.558 52.849 164.127-51.19-2.248-115.208-35.121-152.073-78.030-32.616-37.811-61.751-99.785-54.225-158.066 57.503-4.255 116.544 28.78 153.449 71.968z" />
<glyph unicode="&#xe91c;" glyph-name="lauren" d="M840.908 115.513c-73.712 32.878-137.172 9.853-176.342-15.194 39.17 25.099 84.28 75.92 83.86 155.73-136.226-53.829-120.663-129.438-145.374-173.465-16.562-29.611-52.945-14.209-52.945-14.209l-11.199-18.254c19.19-10.009 51.998-16.543 90.221-16.543 68.718 0 155.048 21.21 211.778 81.936zM969.405 324.086c-72.661-5.030-111.357-55.021-131.494-91.426 20.137 36.404 32.282 100.709-2.629 163.768-84.648-100.034-39.538-153.396-40.063-198.669-0.21-22.143-25.763-21.625-25.763-21.625l0.368-20.951c16.509 2.126 165.827 37.182 199.581 168.902zM1023.874 524.777c-61.567-22.092-82.019-76.387-90.327-112.791 8.307 36.404 2.156 96.612-43.901 142.61-48.108-107.243 4.311-142.351 15.247-181.659 5.363-19.239-17.087-31.426-17.087-31.426l15.247-9.283c3.207 1.504 125.395 69.075 120.821 192.549zM1013.359 721.423c-47.477-34.538-53.47-87.537-51.21-121.089-2.208 33.5-20.768 84.995-72.345 113.154-13.88-104.65 40.431-121.815 60.042-152.982 9.569-15.246 1.209-34.123 1.209-34.123l14.932 0.985s1.367 6.586 8.885 22.921c15.3 33.397 65.984 69.179 38.486 171.132zM913.411 862.477s-14.353-51.028-2.366-89.818c12.829-41.383 45.899-70.579 45.899-70.579s17.876 45.272 5.205 89.87c-11.672 41.072-48.738 70.527-48.738 70.527zM485.095 50.119l-11.199 18.254s-36.33-15.402-52.945 14.209c-24.711 44.028-9.148 119.637-145.374 173.465-0.421-79.81 44.69-130.683 83.86-155.73-39.17 25.099-102.629 48.072-176.342 15.194 56.678-60.726 143.061-81.988 211.778-81.988 38.223 0.052 70.978 6.586 90.221 16.595zM254.126 155.236l0.368 20.951s-25.552-0.519-25.763 21.625c-0.473 45.272 44.585 98.582-40.063 198.669-34.911-63.059-22.766-127.415-2.629-163.768-20.137 36.404-58.886 86.396-131.494 91.426 33.754-131.772 183.072-166.828 199.581-168.902zM120.949 332.228l15.247 9.283s-22.45 12.239-17.087 31.426c10.936 39.308 63.355 74.416 15.247 181.659-46.057-45.998-52.261-106.205-43.901-142.61-8.307 36.404-28.707 90.7-90.327 112.791-4.627-123.474 117.561-191.045 120.821-192.549zM49.13 550.239c7.518-16.335 8.885-22.921 8.885-22.921l14.932-0.985s-8.36 18.876 1.209 34.123c19.611 31.167 73.87 48.384 60.042 152.982-51.683-28.107-70.19-79.55-72.398-113.103 2.208 33.552-3.786 86.603-51.21 121.089-27.498-101.953 23.186-137.735 38.539-171.184zM61.8 791.95c-12.618-44.598 5.205-89.87 5.205-89.87s33.071 29.196 45.899 70.579c11.987 38.79-2.366 89.818-2.366 89.818s-37.066-29.455-48.738-70.527z" />
<glyph unicode="&#xe91d;" glyph-name="star" d="M512 115.523l-290.844-152.906c-11.547-6.070-25.828-1.631-31.898 9.916-2.418 4.597-3.252 9.864-2.373 14.985l55.546 323.859-235.298 229.358c-9.341 9.106-9.532 24.060-0.427 33.401 3.626 3.72 8.377 6.141 13.518 6.887l325.173 47.249 145.421 294.656c5.773 11.698 19.936 16.5 31.634 10.728 4.658-2.299 8.429-6.069 10.728-10.728l145.421-294.656 325.173-47.249c12.91-1.876 21.854-13.862 19.977-26.771-0.747-5.14-3.168-9.891-6.887-13.518l-235.298-229.358 55.546-323.859c2.205-12.857-6.429-25.068-19.288-27.273-5.12-0.878-10.387-0.044-14.985 2.373l-290.844 152.906z" />
<glyph unicode="&#xe91e;" glyph-name="twitter" d="M1024.001 765.575c-37.664-16.702-78.181-27.998-120.672-33.043 43.383 25.992 76.677 67.12 92.391 116.206-40.594-24.081-85.577-41.551-133.409-50.967-38.322 40.814-92.924 66.321-153.385 66.321-116.002 0-210.086-94.083-210.086-210.086 0-16.466 1.865-32.495 5.468-47.88-174.599 8.758-329.41 92.391-433.035 219.533-18.081-31.021-28.452-67.136-28.452-105.631 0-72.869 37.116-137.201 93.456-174.866-34.421 1.081-66.838 10.528-95.149 26.306-0.016-0.893-0.016-1.786-0.016-2.663 0-101.793 72.447-186.694 168.536-205.981-17.61-4.825-36.208-7.38-55.338-7.38-13.568 0-26.713 1.301-39.529 3.744 26.729-83.445 104.299-144.189 196.251-145.896-71.914-56.356-162.488-89.932-260.943-89.932-16.921 0-33.686 0.987-50.089 2.946 92.924-59.631 203.38-94.397 322.015-94.397 386.424 0 597.747 320.119 597.747 597.762 0 9.103-0.204 18.174-0.611 27.167 41.080 29.612 76.693 66.603 104.847 108.733z" />
<glyph unicode="&#xe91f;" glyph-name="cycle-arrows" d="M512 960c-282.317 0-512-229.683-512-512s229.683-512 512-512c282.317 0 512 229.683 512 512s-229.683 512-512 512zM361.466 230.127c-3.912-6.243-10.552-9.682-17.389-9.682-3.747 0-7.561 1.035-10.979 3.239-83.889 53.887-133.987 146.203-133.987 246.899 0 161.094 129.023 292.139 287.631 292.139 4.273 0 8.448-0.367 12.656-0.634l-47.763 48.512c-8.021 8.146-8.021 21.368 0 29.514s21.038 8.146 29.059 0l82.18-83.468c8.021-8.146 8.021-21.368 0-29.514l-82.18-83.468c-3.978-4.073-9.237-6.143-14.497-6.143s-10.519 2.037-14.529 6.076c-8.021 8.146-8.021 21.368 0 29.514l46.514 47.243c-3.78 0.3-7.561 0.634-11.407 0.634-135.959 0-246.54-112.315-246.54-250.405 0-86.306 42.931-165.434 114.888-211.675 9.566-6.177 12.459-19.064 6.377-28.813l-0.033 0.033zM515.18 161.746c-4.601 0-9.096 0.368-13.626 0.635l51.423-48.544c8.635-8.152 8.635-21.382 0-29.534-4.318-4.043-10.016-6.081-15.678-6.081s-11.325 2.038-15.678 6.081l-88.478 83.524c-8.635 8.152-8.635 21.382 0 29.534l88.478 83.524c8.635 8.152 22.65 8.152 31.286 0s8.635-21.382 0-29.534l-50.079-47.274c4.105-0.267 8.175-0.568 12.352-0.568 146.378 0 265.434 112.389 265.434 250.571 0 86.163-46.044 165.21-123.162 211.482-10.299 6.181-13.342 19.077-6.76 28.799 6.547 9.689 20.173 12.562 30.543 6.381 89.929-53.956 143.653-146.2 143.653-246.695 0-161.201-138.911-292.333-309.673-292.333l-0.035 0.033z" />
<glyph unicode="&#xe920;" glyph-name="free" horiz-adv-x="1342" d="M1231.434 542.867h-134.691l-268.404 245.265c-4.628-18.51-9.256-32.393-13.883-50.905l212.872-198.989h-740.424l194.362 194.362c-9.256 13.883-13.883 32.393-18.51 50.905l-226.755-226.755c-4.628-4.628-4.628-9.256-4.628-18.51h-122.075c-78.67 0-109.307-19.906-109.307-98.576v-398.093c0-78.67 30.637-104.926 109.307-104.926h1122.136c78.67 0 110.575 26.255 110.575 104.926v357.839c0 3.795-0.066 36.558-0.2 40.254-2.804 77.417-35.288 103.203-110.375 103.203zM347.064 404.038h-161.968v-138.829h115.691c13.883 0 23.138-9.256 23.138-23.138s-9.256-23.138-23.138-23.138h-115.691v-161.968c0-13.883-9.256-23.138-23.138-23.138s-23.138 9.256-23.138 23.138v370.212c0 13.883 9.256 23.138 23.138 23.138h185.106c13.883 0 23.138-9.256 23.138-23.138s-9.256-23.138-23.138-23.138zM643.233 70.847c9.256-9.256 9.256-23.138 0-32.393-9.256-4.628-13.883-4.628-18.51-4.628s-13.883 4.628-18.51 9.256l-143.457 166.595v-148.085c0-13.883-9.256-23.138-23.138-23.138s-23.138 9.256-23.138 23.138v370.212c0 13.883 9.256 23.138 23.138 23.138h92.553c60.159 0 115.691-55.531 115.691-115.691 0-69.415-37.021-115.691-92.553-115.691h-41.649l129.574-152.713zM856.105 265.208c13.883 0 23.138-9.256 23.138-23.138s-9.256-23.138-23.138-23.138h-115.691v-138.829h161.968c13.883 0 23.138-9.256 23.138-23.138s-9.256-23.138-23.138-23.138h-185.106c-13.883 0-23.138 9.256-23.138 23.138v370.212c0 13.883 9.256 23.138 23.138 23.138h185.106c13.883 0 23.138-9.256 23.138-23.138s-9.256-23.138-23.138-23.138h-161.968v-138.829h115.691zM1133.765 265.208c13.883 0 23.138-9.256 23.138-23.138s-9.256-23.138-23.138-23.138h-115.691v-138.829h161.968c13.883 0 23.138-9.256 23.138-23.138s-9.256-23.138-23.138-23.138h-185.106c-13.883 0-23.138 9.256-23.138 23.138v370.212c0 13.883 9.256 23.138 23.138 23.138h185.106c13.883 0 23.138-9.256 23.138-23.138s-9.256-23.138-23.138-23.138h-161.968v-138.829h115.691zM647.861 681.697c-76.674 0-138.829 62.156-138.829 138.829s62.156 138.829 138.829 138.829c76.674 0 138.829-62.156 138.829-138.829s-62.156-138.829-138.829-138.829zM601.584 334.623c0-13.883 0-69.415-46.277-69.415h-92.553v138.829h69.415c37.021 0 69.415-32.393 69.415-69.415z" />
<glyph unicode="&#xe921;" glyph-name="people" horiz-adv-x="1536" d="M426.621 268.542l56.128 14.016c9.471 2.368 17.344 8.896 21.376 17.792 4.032 8.832 3.84 19.072-0.576 27.776-9.664 18.944-17.664 38.656-23.808 58.688-1.856 6.208-5.632 11.712-10.688 15.744-28.608 22.656-46.784 54.912-51.263 91.008l-10.432 83.391c-4.672 37.184 6.272 75.136 29.952 104.128 5.248 6.464 7.808 14.656 7.104 22.911-1.152 13.76-1.92 26.56-1.92 36.032 0 41.024 6.72 77.888 20.096 109.504 4.352 10.432 2.944 22.464-3.84 31.552s-18.112 14.208-29.12 12.736c-33.024-3.52-61.376-12.992-86.335-28.8-142.848-4.672-159.68-81.216-159.68-138.879 0-11.904 2.24-34.752 4.224-53.184-5.568-3.328-10.688-7.488-15.104-12.48-11.904-13.44-17.408-31.36-15.168-49.216l7.68-61.184c2.752-22.4 17.216-40.768 38.592-49.472 7.744-38.912 26.432-76.736 52.736-106.495l-6.016-24.192-107.52-26.88c-84.288-20.992-143.039-96.32-143.039-183.103 0-17.664 14.336-32 32-32h188.16c10.624 0 20.48 5.248 26.432 14.016 43.199 63.359 107.136 108.352 180.032 126.592zM1093.885 206.398l-153.407 38.336-10.496 41.92c40.448 41.92 68.544 97.664 78.4 155.2 24.512 9.6 42.944 32.064 46.336 59.52l10.432 83.456c2.624 20.8-3.84 41.727-17.535 57.536-6.208 7.104-13.696 12.928-21.952 17.152l3.264 66.688 12.8 12.864c21.504 22.848 50.496 72 3.456 143.808-33.472 51.135-89.792 77.056-167.424 77.056-29.631 0-97.408 0-161.664-41.92-185.535-4.928-209.664-97.344-209.664-177.855 0-17.472 3.712-53.312 6.656-79.168-9.216-4.224-17.535-10.368-24.384-18.112-14.016-15.872-20.48-36.992-17.856-57.92l10.432-83.456c3.648-29.376 24.32-52.992 51.456-61.312 9.792-55.040 36.351-108.608 74.304-149.568l-11.456-45.759-153.407-38.336c-109.568-27.392-186.112-125.439-186.112-238.463 0-17.664 14.336-32 32-32h960c17.664 0 32 14.4 32 32.064-0.064 112.896-76.608 210.88-186.175 238.272zM1393.022 343.103l-107.52 26.88-5.312 21.248c28.032 30.464 47.808 69.632 55.68 110.336 18.56 9.024 32.192 26.943 34.88 48.575l7.68 61.184c2.24 17.664-3.2 35.456-14.847 48.832-4.032 4.608-8.704 8.576-13.76 11.776l1.984 40.383 7.232 7.232c17.472 18.624 41.216 58.432 3.456 116.031-18.048 27.52-55.232 60.352-129.92 60.352-30.336 0-57.088-4.096-81.792-12.608-15.488-5.312-24.448-21.44-20.8-37.44 11.072-48.064 1.856-93.952-26.624-132.8-8.256-11.264-8.256-26.56-0.064-37.824 20.8-28.48 29.824-63.424 25.472-98.303l-10.432-83.519c-4.16-33.6-20.608-64.448-46.336-86.784-4.608-4.032-8-9.28-9.728-15.104-6.528-22.016-15.168-43.648-25.792-64.32-4.48-8.704-4.736-18.944-0.704-27.84s11.968-15.488 21.376-17.792l52.288-13.056c72.896-18.24 136.832-63.168 180.032-126.592 5.952-8.768 15.872-14.016 26.432-14.016h188.096c17.664 0 32 14.4 32 32.064 0 86.784-58.752 162.048-142.976 183.103z" />
<glyph unicode="&#xe923;" glyph-name="arrow-up" d="M447.353-64h129.293v775.758l355.555-355.555 91.798 91.798-511.999 511.999-511.999-511.999 91.798-91.798 355.555 355.555z" />
<glyph unicode="&#xe924;" glyph-name="arrow-down" d="M576.647 960h-129.293v-775.757l-355.555 355.555-91.798-91.798 511.999-511.999 511.999 511.999-91.798 91.798-355.555-355.555z" />
<glyph unicode="&#xe925;" glyph-name="cash" d="M644.377 647.004c38.048-101.559 265.845-201.221 265.845-391.004 0-176.469-178.655-320-398.222-320s-398.222 143.531-398.222 320c0 189.311 226.501 291.311 265.887 391.004h264.713zM532.958 165.305c47.787 7.936 83.836 42.368 83.836 83.541 0 40.021-27.456 66.944-83.836 81.067v86.997c23.097-5.76 40.577-20.395 42.002-37.717 0.964-11.733 11.444-20.949 22.636-19.456 11.527 0.981 20.079 11.307 19.115 23.040-3.27 39.509-37.894 70.485-83.752 77.781v22.997c0 11.776-9.39 21.333-20.959 21.333s-20.959-9.557-20.959-21.333v-23.083c-47.787-7.936-83.836-42.368-83.836-83.584 0-39.936 27.456-66.901 83.836-81.024v-86.997c-23.097 5.717-40.577 20.395-42.002 37.717-0.964 11.733-10.941 20.608-22.636 19.456-11.527-0.981-20.079-11.307-19.115-23.040 3.228-39.467 37.894-70.485 83.752-77.781v-22.997c0-11.776 9.39-21.333 20.959-21.333s20.959 9.557 20.959 21.333v23.083zM532.958 285.881c27.959-8.192 41.918-20.053 41.918-36.992 0-18.133-17.815-33.92-41.918-39.936v76.928zM449.122 376.889c0 18.133 17.815 33.92 41.918 39.936v-76.928c-27.917 8.235-41.918 20.053-41.918 36.992zM783.507 931.456c9.669-10.965 14.056-25.216 12.693-41.216-4.898-56.149-113.197-132.51-149.996-186.24h-270.814c-33.134 52.393-142.722 130.133-147.578 186.24-1.406 16 2.939 30.251 12.608 41.173 6.006 6.827 17.336 14.976 36.93 14.976 42.808 0 110.875-41.429 143.758-63.317 24.279 34.603 60.272 76.928 90.855 76.928s66.576-42.325 90.855-76.885c32.883 21.845 100.95 63.317 143.758 63.317 19.636 0 30.924-8.149 36.93-14.976z" />
</font>
</defs>
</svg>
